<svg width="40" height="40" viewBox="0 0 40 40" fill="none" xmlns="http://www.w3.org/2000/svg">
<g clip-path="url(#clip0_5666_56839)">
<path d="M20.0012 11.9947C20.188 11.9947 20.3713 11.9193 20.5033 11.7865C20.6354 11.6545 20.7115 11.4712 20.7115 11.2844C20.7115 11.0977 20.6355 10.9144 20.5033 10.7823C20.3713 10.6502 20.188 10.5742 20.0012 10.5742C19.8145 10.5742 19.6312 10.6501 19.4991 10.7823C19.367 10.9144 19.291 11.0977 19.291 11.2844C19.291 11.4712 19.367 11.6545 19.4991 11.7865C19.6313 11.9194 19.8145 11.9947 20.0012 11.9947Z" fill="#D72134"/>
<path d="M34.3481 24.9707C34.3481 24.5785 34.03 24.2605 33.6378 24.2605H29.7514L28.5969 21.8972C28.4247 21.5448 27.9997 21.3988 27.647 21.5708C27.2945 21.743 27.1484 22.1683 27.3205 22.5208L30.7707 29.5833C30.9206 29.89 30.942 30.2369 30.8311 30.5599C30.7202 30.8828 30.49 31.1433 30.1833 31.2931C29.5498 31.6024 28.7827 31.339 28.4734 30.7056L21.073 15.5574C21.9338 15.3413 22.6947 14.8714 23.2712 14.2319L24.5143 16.7765C24.6375 17.0286 24.8901 17.1751 25.153 17.1751C25.2577 17.1751 25.3639 17.1519 25.4643 17.1029C25.8167 16.9306 25.9629 16.5054 25.7907 16.1529L24.1432 12.7804C24.312 12.3137 24.4046 11.8107 24.4046 11.2864C24.4046 9.81132 23.6747 8.50424 22.5579 7.7047V2.52666C22.5579 2.13446 22.2399 1.81641 21.8477 1.81641H18.1543C17.7621 1.81641 17.4441 2.13446 17.4441 2.52666V7.7047C16.3273 8.50424 15.5974 9.81132 15.5974 11.2864C15.5974 11.81 15.6897 12.3125 15.8581 12.7787L10.249 24.2605H6.3626C5.97032 24.2605 5.65234 24.5785 5.65234 24.9707C5.65234 25.3629 5.97032 25.681 6.3626 25.681H9.55498L7.08031 30.7465C6.53796 31.8569 6.83016 33.1612 7.71024 33.946L6.08574 37.1484C5.90825 37.4982 6.04803 37.9256 6.39783 38.1031C6.50081 38.1553 6.61048 38.18 6.71858 38.18C6.97761 38.18 7.22733 38.0378 7.35255 37.7909L8.98223 34.5782C9.15468 34.6122 9.32834 34.6299 9.501 34.6299C10.5005 34.6299 11.4629 34.0728 11.9304 33.1159L15.5627 25.681H19.2907V26.9358C19.2907 27.328 19.6086 27.646 20.0009 27.646C20.3931 27.646 20.7112 27.328 20.7112 26.9358V25.681H24.4377L27.197 31.3291C27.3704 31.684 27.6121 31.9836 27.8982 32.2204C27.5529 32.6192 27.3432 33.1384 27.3432 33.7061C27.3432 34.9593 28.3628 35.9789 29.6161 35.9789C30.3 35.9789 30.9139 35.6748 31.331 35.1951L32.6478 37.791C32.773 38.0379 33.0227 38.1801 33.2818 38.1801C33.3898 38.1801 33.4995 38.1553 33.6025 38.1031C33.9524 37.9257 34.0922 37.4982 33.9147 37.1485L31.3943 32.1798C32.2924 31.3974 32.5944 30.0797 32.0472 28.9597L30.4454 25.681H33.6378C34.0301 25.681 34.3481 25.3629 34.3481 24.9707ZM18.8645 3.23692H21.1373V7.03238C20.7746 6.93536 20.3938 6.88294 20.0009 6.88294C19.608 6.88294 19.2272 6.93543 18.8645 7.03238V3.23692ZM20.0009 8.30338C21.6458 8.30338 22.984 9.64157 22.984 11.2864C22.984 12.9313 21.6458 14.2695 20.0009 14.2695C18.356 14.2695 17.0178 12.9313 17.0178 11.2864C17.0178 9.64157 18.3561 8.30338 20.0009 8.30338ZM10.654 32.4924C10.3446 33.1259 9.57771 33.3894 8.94416 33.0799C8.31076 32.7705 8.04718 32.0035 8.35664 31.37L16.7297 14.2307C17.3061 14.8705 18.0668 15.3406 18.9275 15.5571L10.654 32.4924ZM20.7112 24.2605V23.0057C20.7112 22.6135 20.3931 22.2954 20.0009 22.2954C19.6086 22.2954 19.2907 22.6135 19.2907 23.0057V24.2605H16.2566L20.0002 16.5976L23.7438 24.2605H20.7112ZM29.6161 34.5584C29.1462 34.5584 28.7638 34.1761 28.7638 33.7061C28.7638 33.2361 29.1462 32.8538 29.6161 32.8538C30.0861 32.8538 30.4684 33.2361 30.4684 33.7061C30.4684 34.1761 30.0862 34.5584 29.6161 34.5584Z" fill="#D72134"/>
<path d="M26.0538 19.8374C26.1859 19.9694 26.3691 20.0455 26.5559 20.0455C26.7427 20.0455 26.926 19.9695 27.058 19.8374C27.1901 19.7053 27.2662 19.522 27.2662 19.3352C27.2662 19.1484 27.1902 18.9652 27.058 18.8331C26.926 18.7011 26.7427 18.625 26.5559 18.625C26.3684 18.625 26.1859 18.701 26.0538 18.8331C25.9217 18.9652 25.8457 19.1484 25.8457 19.3352C25.8457 19.522 25.9217 19.7053 26.0538 19.8374Z" fill="#D72134"/>
</g>
<defs>
<clipPath id="clip0_5666_56839">
<rect width="36.3636" height="36.3636" fill="white" transform="translate(1.81836 1.81641)"/>
</clipPath>
</defs>
</svg>
