<svg width="40" height="40" viewBox="0 0 40 40" fill="none" xmlns="http://www.w3.org/2000/svg">
<path d="M24.6918 19.4301C25.0079 19.4301 25.2643 19.1738 25.2643 18.8576C25.2643 18.5415 25.0079 18.2852 24.6918 18.2852C24.3756 18.2852 24.1193 18.5415 24.1193 18.8576C24.1193 19.1738 24.3756 19.4301 24.6918 19.4301Z" fill="#D72134"/>
<path d="M24.7896 21.3071C24.4771 21.2606 24.1857 21.4767 24.1394 21.7895C23.983 22.846 23.0899 23.7223 21.7505 24.1336C20.3188 24.5732 18.3316 24.4258 17.1194 23.1057C16.9055 22.8728 16.5433 22.8575 16.3105 23.0713C16.0776 23.2851 16.0622 23.6473 16.2761 23.8801C16.9778 24.6444 17.931 25.1652 19.0324 25.3864C19.4214 25.4645 19.8249 25.5032 20.231 25.5032C20.8583 25.5032 21.4919 25.4108 22.0866 25.2281C23.8584 24.6841 25.0493 23.4614 25.272 21.9572C25.3184 21.6445 25.1024 21.3534 24.7896 21.3071Z" fill="#D72134"/>
<path d="M32.7452 16.2447C31.7046 15.0384 30.2685 14.2562 28.5398 13.9421C30.1948 12.8252 31.6224 11.7136 32.6403 10.7437C34.1923 9.26487 34.7127 8.22568 34.2782 7.47348C33.7946 6.6357 32.3988 6.64148 29.8852 7.49186C27.7615 8.21034 25.1157 9.4582 22.4355 11.0057C21.9726 11.2729 21.5139 11.5465 21.0652 11.8223C20.7324 10.8825 20.9519 9.80886 21.6862 8.87793C22.2362 8.18063 22.359 7.29498 22.0068 6.56648C21.6375 5.80295 20.8271 5.34581 19.8375 5.34375H19.8106C16.3181 5.34375 12.9019 6.7218 10.1916 9.22405C7.47783 11.7294 5.81646 15.046 5.51349 18.5627C5.14899 22.7981 6.50282 26.8246 9.3255 29.9007C12.0983 32.9224 16.0293 34.6554 20.1106 34.6554C22.3078 34.6554 24.3705 34.2534 26.2413 33.4605C27.9519 32.7354 29.4709 31.7001 30.7563 30.3832C31.948 29.1621 32.8877 27.7565 33.5491 26.2052C34.1785 24.7291 34.5223 23.1648 34.5436 21.6815C34.5746 19.5245 33.9527 17.6445 32.7452 16.2447ZM21.1322 13.129C21.7381 12.7468 22.3691 12.3661 23.008 11.9973C25.4861 10.5665 27.9538 9.38802 29.9565 8.67887C32.1612 7.89827 33.0638 7.94923 33.2743 8.04998C33.2561 8.1832 33.0906 8.77591 31.6439 10.1082C30.4358 11.2207 28.6717 12.5291 26.6765 13.7922C26.0457 14.1916 25.3893 14.5885 24.7255 14.9719C23.8104 15.5001 22.8959 15.994 21.9984 16.4462C21.8194 15.9235 21.5899 15.4164 21.3105 14.9325C21.0398 14.4636 20.7258 14.0233 20.3748 13.616C20.6232 13.4532 20.876 13.2904 21.1322 13.129ZM20.9612 16.954C19.3447 17.7207 17.8613 18.3051 16.6768 18.6442C16.6151 18.348 16.5067 18.0618 16.3529 17.7951C16.207 17.5423 16.0241 17.3164 15.8127 17.1215C16.6995 16.2657 17.9477 15.2741 19.4174 14.2597C19.7586 14.641 20.0611 15.0582 20.319 15.5049C20.5857 15.9669 20.8004 16.4528 20.9612 16.954ZM33.3987 21.6651C33.3171 27.3619 28.2135 33.5104 20.1106 33.5104C16.3492 33.5104 12.7257 31.9126 10.1692 29.1266C7.56588 26.2897 6.31767 22.5729 6.6543 18.661C7.23246 11.9492 13.1344 6.48874 19.8106 6.48874H19.8363C20.384 6.48988 20.7994 6.69987 20.9759 7.06495C21.1382 7.40055 21.0677 7.8132 20.7872 8.16883C19.7554 9.47698 19.4966 11.0859 20.0796 12.4424C19.7727 12.6401 19.471 12.8387 19.1795 13.0357C19.1782 13.0366 19.1768 13.0375 19.1755 13.0385C17.355 14.2669 15.8177 15.4887 14.7949 16.517C14.0192 16.2519 13.1669 16.3292 12.4424 16.7473C11.253 17.4344 9.69127 20.636 9.39031 21.2709C9.3097 21.4408 9.31777 21.6395 9.41177 21.8024C9.50584 21.9652 9.67386 22.0716 9.8613 22.0868C10.1777 22.1124 11.0762 22.1772 12.0763 22.1772C13.2899 22.1772 14.6529 22.0817 15.305 21.7051C16.0113 21.2974 16.5009 20.6161 16.6705 19.8329C18.0744 19.4644 19.9087 18.7435 21.8954 17.7756C23.0085 17.2338 24.1533 16.6242 25.298 15.9635C25.8787 15.6281 26.4528 15.2824 27.0107 14.9337C27.0141 14.9339 27.0174 14.9344 27.0208 14.9345C31.7924 15.0713 33.4441 18.501 33.3987 21.6651ZM15.5885 19.3338C15.5518 19.9095 15.2319 20.4252 14.7325 20.7135C14.1911 21.0263 12.3311 21.0684 10.804 20.9986C11.5068 19.6416 12.4731 18.052 13.015 17.7389C13.5267 17.4435 14.1454 17.4306 14.6702 17.7044C14.9587 17.8546 15.1976 18.0838 15.3611 18.3672C15.5312 18.6621 15.6098 18.9963 15.5885 19.3338Z" fill="#D72134"/>
<path d="M15.5303 8.88672C14.2676 8.88672 13.2404 9.914 13.2404 11.1767C13.2404 12.4394 14.2676 13.4667 15.5303 13.4667C16.793 13.4667 17.8203 12.4394 17.8203 11.1767C17.8203 9.914 16.793 8.88672 15.5303 8.88672ZM15.5303 12.3217C14.899 12.3217 14.3853 11.808 14.3853 11.1767C14.3853 10.5453 14.899 10.0317 15.5303 10.0317C16.1617 10.0317 16.6753 10.5453 16.6753 11.1767C16.6753 11.808 16.1617 12.3217 15.5303 12.3217Z" fill="#D72134"/>
<path d="M12.667 24.2656C11.4044 24.2656 10.3771 25.2929 10.3771 26.5556C10.3771 27.8183 11.4044 28.8456 12.667 28.8456C13.9297 28.8456 14.957 27.8183 14.957 26.5556C14.957 25.2929 13.9297 24.2656 12.667 24.2656ZM12.667 27.7006C12.0357 27.7006 11.5221 27.1869 11.5221 26.5556C11.5221 25.9243 12.0357 25.4106 12.667 25.4106C13.2984 25.4106 13.812 25.9243 13.812 26.5556C13.812 27.1869 13.2984 27.7006 12.667 27.7006Z" fill="#D72134"/>
<path d="M18.3936 27.7031C17.1309 27.7031 16.1036 28.7304 16.1036 29.9931C16.1036 31.2558 17.1309 32.2831 18.3936 32.2831C19.6563 32.2831 20.6836 31.2558 20.6836 29.9931C20.6836 28.7304 19.6563 27.7031 18.3936 27.7031ZM18.3936 31.1381C17.7623 31.1381 17.2486 30.6244 17.2486 29.9931C17.2486 29.3618 17.7623 28.8481 18.3936 28.8481C19.025 28.8481 19.5386 29.3618 19.5386 29.9931C19.5386 30.6244 19.025 31.1381 18.3936 31.1381Z" fill="#D72134"/>
<path d="M25.2647 26.5547C24.002 26.5547 22.9747 27.582 22.9747 28.8447C22.9747 30.1074 24.002 31.1346 25.2647 31.1346C26.5274 31.1346 27.5547 30.1074 27.5547 28.8447C27.5547 27.582 26.5274 26.5547 25.2647 26.5547ZM25.2647 29.9896C24.6334 29.9896 24.1197 29.476 24.1197 28.8447C24.1197 28.2133 24.6334 27.6997 25.2647 27.6997C25.8961 27.6997 26.4097 28.2133 26.4097 28.8447C26.4097 29.476 25.8961 29.9896 25.2647 29.9896Z" fill="#D72134"/>
<path d="M29.8409 20.832C28.5782 20.832 27.5509 21.8593 27.5509 23.122C27.5509 24.3847 28.5782 25.412 29.8409 25.412C31.1036 25.412 32.1309 24.3847 32.1309 23.122C32.1309 21.8593 31.1036 20.832 29.8409 20.832ZM29.8409 24.267C29.2095 24.267 28.6959 23.7534 28.6959 23.122C28.6959 22.4907 29.2095 21.977 29.8409 21.977C30.4722 21.977 30.9859 22.4907 30.9859 23.122C30.9859 23.7534 30.4722 24.267 29.8409 24.267Z" fill="#D72134"/>
</svg>
