<svg width="1004" height="617" viewBox="0 0 1004 617" fill="none" xmlns="http://www.w3.org/2000/svg">
<g clip-path="url(#clip0_5956_50567)">
<rect width="1004" height="639" rx="16" fill="#1F2251"/>
<path d="M921.003 179L967.391 179L967.391 146.282L967.391 132.139L957.228 132.139L957.228 116.378L942.834 116.378L942.834 105L921.003 105L921.003 179Z" fill="#FEBD25"/>
<g clip-path="url(#clip1_5956_50567)">
<path d="M-174 240.932L78.4437 240.932C114.399 240.922 148.878 226.643 174.299 201.235C199.719 175.828 214 141.373 214 105.446V105.446C214 69.5238 199.718 35.0724 174.296 9.67132C148.875 -15.7298 114.395 -30 78.4437 -30L-174 -30" stroke="#2ABB9E" stroke-width="6" stroke-miterlimit="10"/>
<path d="M-174 217.34L78.4437 217.34C108.152 217.34 136.643 205.548 157.649 184.558C178.656 163.569 190.457 135.101 190.457 105.417C190.457 75.733 178.656 47.265 157.649 26.2754C136.643 5.28574 108.152 -6.50611 78.4437 -6.50611L-174 -6.5061" stroke="#2ABB9E" stroke-width="6" stroke-miterlimit="10"/>
<path d="M-174 193.722L78.4437 193.722C101.549 193.235 123.543 183.722 139.711 167.223C155.879 150.724 164.934 128.551 164.934 105.46C164.934 82.3688 155.879 60.1967 139.711 43.6974C123.543 27.1981 101.549 17.6851 78.4437 17.1981L-174 17.1981" stroke="#2ABB9E" stroke-width="6" stroke-miterlimit="10"/>
<path d="M-174 170.125L78.4437 170.125C95.3304 169.709 111.385 162.714 123.182 150.634C134.978 138.553 141.581 122.343 141.581 105.465C141.581 88.5869 134.978 72.3774 123.182 60.2966C111.385 48.2158 95.3304 41.2209 78.4437 40.8051L-174 40.8051" stroke="#2ABB9E" stroke-width="6" stroke-miterlimit="10"/>
<path d="M-174 146.528L78.4437 146.528C89.1218 146.198 99.252 141.728 106.689 134.064C114.125 126.4 118.284 116.145 118.284 105.47C118.284 94.7956 114.125 84.5402 106.689 76.8764C99.252 69.2125 89.1218 64.7421 78.4437 64.4121L-174 64.4121" stroke="#2ABB9E" stroke-width="6" stroke-miterlimit="10"/>
<path d="M-174 122.934L78.4437 122.934C82.9337 122.721 87.1694 120.789 90.2716 117.539C93.3739 114.289 95.1046 109.97 95.1046 105.478C95.1046 100.987 93.3739 96.6677 90.2716 93.4173C87.1694 90.167 82.9337 88.2349 78.4437 88.0221L-174 88.0221" stroke="#2ABB9E" stroke-width="6" stroke-miterlimit="10"/>
</g>
<path d="M1023 680L747 680L747 483C747 406.785 808.785 345 885 345C961.215 345 1023 406.785 1023 483L1023 680Z" fill="#FEBD25"/>
</g>
<defs>
<clipPath id="clip0_5956_50567">
<rect width="1004" height="617" rx="12" fill="white"/>
</clipPath>
<clipPath id="clip1_5956_50567">
<rect width="308" height="411" fill="white" transform="matrix(1.19249e-08 1 1 -1.19249e-08 -186 -49)"/>
</clipPath>
</defs>
</svg>
