<svg width="1440" height="553" viewBox="0 0 1440 553" fill="none" xmlns="http://www.w3.org/2000/svg">
<g clip-path="url(#clip0_6121_86316)">
<path fill-rule="evenodd" clip-rule="evenodd" d="M1440.47 -65L1280.57 -65L1280.57 -34.8426L1317.31 -34.8426L1317.31 -4.6854L1280.57 -4.6854L1280.57 25.472L1317.31 25.472L1317.31 55.528L1280.57 55.528L1280.57 85.6854L1317.31 85.6854L1317.31 115.843L1280.57 115.843L1280.57 146L1440.47 146L1440.47 -65ZM1243.74 25.4723L1243.74 -4.68504L1280.57 -4.68504L1280.57 -34.8423L1243.74 -34.8423L1243.74 -4.68504L1207 -4.68505L1207 25.4723L1243.74 25.4723ZM1243.74 25.4723L1243.74 55.5284L1280.57 55.5284L1280.57 25.4723L1243.74 25.4723ZM1243.74 55.6289L1243.74 85.685L1207 85.685L1207 55.6289L1243.74 55.6289ZM1243.74 85.685L1280.57 85.685L1280.57 115.842L1243.74 115.842L1243.74 85.685Z" fill="#E7EAF8"/>
</g>
<defs>
<clipPath id="clip0_6121_86316">
<rect width="1440" height="553" fill="white"/>
</clipPath>
</defs>
</svg>
