<svg width="125" height="222" viewBox="0 0 125 222" fill="none" xmlns="http://www.w3.org/2000/svg">
<path opacity="0.3" d="M-65 220.552L-65 221.148L125 221.148L125 42.0936C125 -13.6521 82.4041 -59.0126 30.056 -59.0126C-22.292 -59.0126 -64.8879 -13.6521 -64.888 42.0936L-64.888 116.939L-64.888 220.552L-65 220.552ZM28.823 166.238L-14.8938 166.238L-14.8938 120.639L28.823 120.639L28.823 166.238ZM28.823 169.939L28.823 216.97L-14.8938 216.97L-14.8938 169.939L28.823 169.939ZM-18.3688 120.639L-18.3688 166.238L-61.5251 166.238L-61.5251 120.639L-18.3688 120.639ZM-18.3688 169.939L-18.3688 216.97L-61.5251 216.97L-61.5251 169.939L-18.3688 169.939ZM32.2979 217.687L32.2979 120.042L121.637 120.042L121.637 217.687L32.2979 217.687ZM121.749 42.0936L121.749 116.342L32.4101 116.342L32.4101 -55.4316C81.8437 -54.1185 121.749 -10.9066 121.749 42.0936ZM28.823 -55.4316L28.823 116.342L-61.6372 116.342L-61.6372 42.0936C-61.6372 -11.2647 -21.1711 -54.8347 28.823 -55.4316Z" fill="#8083B8"/>
</svg>
