<svg width="40" height="40" viewBox="0 0 40 40" fill="none" xmlns="http://www.w3.org/2000/svg">
<path d="M19.457 12.756C19.457 12.7645 19.457 12.773 19.4575 12.7815C19.4707 13.1032 19.7358 13.3597 20.0605 13.3597C20.3854 13.3597 20.6503 13.1032 20.6637 12.7815C20.6642 12.773 20.6642 12.7645 20.6642 12.756C20.6642 12.4228 20.3937 12.1523 20.0605 12.1523C19.7273 12.1523 19.457 12.4228 19.457 12.756V12.756Z" fill="#D72134"/>
<path d="M35.3368 9.20008C35.7078 8.8289 35.4585 8.17993 34.9204 8.1705C34.9168 8.1705 34.9133 8.17003 34.9098 8.17003H32.7452L34.1294 6.78577C34.365 6.55019 34.365 6.16793 34.1294 5.93211C33.8936 5.69629 33.5114 5.69629 33.2755 5.93211L31.8915 7.31613V5.15155C31.8915 5.15085 31.8913 5.1499 31.8913 5.14896C31.8892 4.62379 31.2524 4.34411 30.8669 4.7193C30.865 4.72142 30.8629 4.72284 30.861 4.72472L28.504 7.08173C25.9963 5.48925 22.8774 4.5481 20.0593 4.5481C11.7399 4.5481 4.60547 11.6752 4.60547 20.002C4.60547 28.3263 11.7366 35.4561 20.0593 35.4561C28.3792 35.4561 35.5134 28.328 35.5134 20.002C35.5134 17.0021 34.6084 13.9414 33.018 11.5194L35.3366 9.20055C35.3368 9.20055 35.3368 9.20032 35.3368 9.20008ZM33.4524 9.37742L31.9651 10.8645C31.929 10.881 31.8939 10.9013 31.8604 10.9256C31.7729 10.9892 31.7078 11.0718 31.6661 11.1637L29.6411 13.1887L27.6616 13.2536L31.5378 9.37742H33.4524ZM25.6185 13.5894L25.1606 14.0471C24.4201 13.4099 23.5636 12.9076 22.6371 12.589C22.3218 12.4808 21.9784 12.6484 21.87 12.9637C21.7617 13.279 21.9294 13.6224 22.2447 13.7309C22.9981 13.9898 23.6964 14.3926 24.3055 14.9022L22.5892 16.6184C21.8619 16.0721 20.983 15.7763 20.0593 15.7763C17.7295 15.7763 15.8337 17.6718 15.8337 20.002C15.8337 22.3321 17.7295 24.2276 20.0593 24.2276C22.3895 24.2276 24.2852 22.3321 24.2852 20.002C24.2852 19.0785 23.9892 18.1998 23.4429 17.4723L25.1589 15.7561C26.2125 17.0163 26.6997 18.5265 26.6997 20.002C26.6997 23.6689 23.7138 26.6424 20.0593 26.6424C16.398 26.6424 13.4189 23.6635 13.4189 20.002C13.4189 17.0061 15.372 14.6008 17.8764 13.7301C18.1912 13.6205 18.3577 13.2764 18.248 12.9616C18.1386 12.6468 17.7945 12.4803 17.4797 12.5897C14.3238 13.6877 12.2118 16.6996 12.2118 20.002C12.2118 24.3292 15.7323 27.8498 20.0593 27.8498C24.3583 27.8498 27.9071 24.3573 27.9071 20.002C27.9071 19.2132 27.7942 18.4588 27.5617 17.6961H27.5614C27.2471 16.6871 26.753 15.7601 26.0145 14.9007L26.4128 14.5025L28.9617 14.419C29.9439 16.0173 30.503 18.0324 30.503 20.002C30.503 25.6628 25.7204 30.4454 20.0593 30.4454C14.3985 30.4454 9.6159 25.6628 9.6159 20.002C9.6159 14.3409 14.3985 9.55852 20.0593 9.55852C22.0357 9.55852 24.0565 10.1212 25.6584 11.11L25.6185 13.5894ZM23.0778 20.002C23.0778 21.6664 21.7237 23.0204 20.0593 23.0204C18.3952 23.0204 17.0411 21.6664 17.0411 20.002C17.0411 18.3376 18.3952 16.9837 20.0593 16.9837C20.6595 16.9837 21.2335 17.1587 21.7233 17.4844L19.6325 19.5751C19.3969 19.811 19.3969 20.1932 19.6325 20.429C19.8683 20.6646 20.2506 20.6646 20.4864 20.429L22.5772 18.3383C22.9028 18.8283 23.0778 19.402 23.0778 20.002V20.002ZM26.8457 12.3619C26.8726 10.6876 26.8502 12.0825 26.8768 10.4162L29.0023 8.29077C29.0027 8.29029 29.0035 8.28982 29.0039 8.28911L30.6841 6.60915V8.52352L26.8457 12.3619ZM34.3061 20.002C34.3061 27.5913 27.6489 34.2487 20.0593 34.2487C12.47 34.2487 5.81286 27.5913 5.81286 20.002C5.81286 12.4126 12.47 5.75525 20.0593 5.75525C22.5722 5.75525 25.3492 6.57071 27.6275 7.95803L25.8503 9.73539C25.8312 9.75449 25.814 9.77501 25.798 9.79623C24.0982 8.87135 22.0562 8.35113 20.0593 8.35113C13.7439 8.35113 8.40851 13.6865 8.40851 20.002C8.40851 26.3174 13.7439 31.653 20.0593 31.653C26.3748 31.653 31.7104 26.3174 31.7104 20.002C31.7104 18.0055 31.1902 15.9624 30.2655 14.2633C30.2868 14.2473 30.3073 14.2301 30.3262 14.2112L32.1443 12.3931C33.5241 14.5869 34.3061 17.3188 34.3061 20.002V20.002Z" fill="#D72134"/>
</svg>
