<svg width="179" height="397" viewBox="0 0 179 397" fill="none" xmlns="http://www.w3.org/2000/svg">
<path d="M16.8937 -91L16.8937 222.662C16.9067 267.337 34.6627 310.177 66.257 341.762C97.8513 373.347 140.697 391.091 185.372 391.091V391.091C230.042 391.091 272.882 373.346 304.469 341.759C336.056 310.173 353.801 267.332 353.801 222.662L353.801 -91" stroke="#2ABB9E" stroke-width="8.34444" stroke-miterlimit="10"/>
<path d="M46.233 -91L46.233 222.662C46.233 259.574 60.8963 294.974 86.9971 321.075C113.098 347.176 148.498 361.839 185.41 361.839C222.323 361.839 257.723 347.176 283.824 321.075C309.925 294.974 324.588 259.574 324.588 222.662L324.588 -91" stroke="#2ABB9E" stroke-width="8.34444" stroke-miterlimit="10"/>
<path d="M75.6036 -91L75.6036 222.662C76.2092 251.37 88.0386 278.698 108.556 298.787C129.073 318.875 156.644 330.126 185.358 330.126C214.073 330.126 241.644 318.876 262.161 298.787C282.678 278.698 294.508 251.37 295.113 222.662L295.113 -91" stroke="#2ABB9E" stroke-width="8.34444" stroke-miterlimit="10"/>
<path d="M104.945 -91L104.945 222.662C105.462 243.644 114.16 263.592 129.183 278.249C144.205 292.906 164.362 301.11 185.35 301.11C206.338 301.11 226.495 292.906 241.518 278.249C256.54 263.592 265.239 243.644 265.756 222.662L265.756 -91" stroke="#2ABB9E" stroke-width="8.34444" stroke-miterlimit="10"/>
<path d="M134.288 -91L134.288 222.662C134.698 235.93 140.257 248.516 149.788 257.756C159.318 266.996 172.07 272.163 185.344 272.163C198.618 272.163 211.371 266.996 220.901 257.756C230.431 248.516 235.99 235.93 236.4 222.662L236.4 -91" stroke="#2ABB9E" stroke-width="8.34444" stroke-miterlimit="10"/>
<path d="M163.629 -91L163.629 222.662C163.894 228.241 166.297 233.504 170.338 237.358C174.38 241.213 179.751 243.363 185.336 243.363C190.921 243.363 196.292 241.213 200.334 237.358C204.376 233.504 206.778 228.241 207.043 222.662L207.043 -91" stroke="#2ABB9E" stroke-width="8.34444" stroke-miterlimit="10"/>
</svg>
