<svg width="40" height="40" viewBox="0 0 40 40" fill="none" xmlns="http://www.w3.org/2000/svg">
<path d="M33.2589 12.142C33.7113 11.5875 33.9832 10.8801 33.9832 10.1103V9.47854C33.9832 7.70325 32.539 6.25903 30.7637 6.25903C28.9884 6.25903 27.5442 7.70325 27.5442 9.47854V10.1103C27.5442 10.8804 27.8162 11.588 28.269 12.1426C27.7173 12.295 27.1923 12.5332 26.7138 12.848V12.3458C26.7138 10.2563 25.0139 8.55637 22.9245 8.55637H22.4774C23.0137 7.90351 23.3362 7.0686 23.3362 6.15973V5.59806C23.3361 3.51296 21.6397 1.81641 19.5544 1.81641C17.4692 1.81641 15.7728 3.51296 15.7728 5.59813V6.1598C15.7728 7.06866 16.0953 7.90358 16.6316 8.55644H16.1844C14.095 8.55644 12.3951 10.2564 12.3951 12.3459V12.86C11.9119 12.5394 11.3808 12.2969 10.8224 12.1427C11.275 11.588 11.5472 10.8804 11.5472 10.1103V9.4786C11.5472 7.70331 10.103 6.2591 8.32766 6.2591C6.55237 6.2591 5.10815 7.70331 5.10815 9.4786V10.1103C5.10815 10.8802 5.38002 11.5875 5.83241 12.1421C3.52122 12.7795 1.81836 14.899 1.81836 17.41V23.0776C1.81836 24.2819 2.79807 25.2616 4.00235 25.2616H4.58326V36.5785C4.58326 36.9609 4.89328 37.271 5.27573 37.271H8.31831C8.31977 37.271 8.32115 37.2707 8.32261 37.2707C8.32406 37.2707 8.32545 37.271 8.3269 37.271H11.3695C11.7519 37.271 12.062 36.9609 12.062 36.5785V25.2616H12.6529C13.8532 25.2616 14.8302 24.2883 14.8365 23.0894C15.061 23.1751 15.2957 23.2399 15.5381 23.2817V36.5785C15.5381 36.9609 15.8481 37.271 16.2306 37.271H22.8783C23.2607 37.271 23.5708 36.9609 23.5708 36.5785V29.8651C23.5708 29.4827 23.2607 29.1726 22.8783 29.1726C22.4958 29.1726 22.1858 29.4827 22.1858 29.8651V35.886H20.2469V24.2044C20.2469 23.822 19.9369 23.512 19.5544 23.512C19.172 23.512 18.862 23.822 18.862 24.2044V35.886H16.923V21.1749H22.1858V24.51C22.1858 24.8924 22.4958 25.2025 22.8783 25.2025C23.2607 25.2025 23.5708 24.8924 23.5708 24.51V23.2818C23.8069 23.241 24.0358 23.1788 24.2549 23.0963C24.265 24.292 25.2405 25.2616 26.4384 25.2616H27.0294V36.5785C27.0294 36.9609 27.3394 37.271 27.7219 37.271H30.7644C30.7659 37.271 30.7673 37.2707 30.7687 37.2707C30.7702 37.2707 30.7716 37.271 30.773 37.271H33.8156C34.1981 37.271 34.5081 36.9609 34.5081 36.5785V25.2616H35.089C36.2933 25.2616 37.273 24.2819 37.273 23.0776V17.41C37.2729 14.899 35.57 12.7795 33.2589 12.142ZM6.49303 9.47854C6.49303 8.46697 7.31603 7.64397 8.32759 7.64397C9.33916 7.64397 10.1622 8.46697 10.1622 9.47854V10.1103C10.1622 11.1218 9.33916 11.9448 8.32759 11.9448C7.31603 11.9448 6.49303 11.1218 6.49303 10.1103V9.47854ZM10.677 35.886H9.01937V25.2219C9.01937 24.8396 8.70935 24.5295 8.3269 24.5295C7.94445 24.5295 7.63443 24.8396 7.63443 25.2219V25.949C7.6293 25.983 7.62577 26.0175 7.62577 26.0529V35.886H5.9682V22.5209H10.677V35.886ZM13.4518 23.0776C13.4519 23.5182 13.0935 23.8767 12.6528 23.8767H12.0619V20.1909C12.0619 19.8085 11.7519 19.4985 11.3694 19.4985C10.987 19.4985 10.6769 19.8085 10.6769 20.1909V21.1359H5.96813V17.9867C5.96813 17.6043 5.65811 17.2943 5.27566 17.2943C4.89321 17.2943 4.58319 17.6043 4.58319 17.9867V23.8766H4.00228C3.56173 23.8766 3.20323 23.5181 3.20323 23.0776V17.41C3.20323 15.1601 5.03364 13.3297 7.28348 13.3297H9.37156C10.52 13.3297 11.6217 13.8178 12.394 14.669C12.3943 14.6693 12.3946 14.6696 12.395 14.6699V19.5486C12.395 20.5651 12.7981 21.4886 13.4518 22.1699V23.0776ZM19.5544 3.20135C20.876 3.20135 21.9511 4.27648 21.9511 5.59806V6.15973C21.9511 7.48124 20.876 8.55637 19.5544 8.55637C18.2328 8.55637 17.1577 7.48124 17.1577 6.15973V5.59806C17.1577 4.27648 18.2328 3.20135 19.5544 3.20135ZM25.3288 19.5487C25.3288 20.6507 24.5835 21.5811 23.5707 21.8642V12.3459C23.5708 11.9634 23.2607 11.6534 22.8783 11.6534C22.4958 11.6534 22.1858 11.9635 22.1858 12.3459V19.7899H16.923V12.3459C16.923 11.9635 16.613 11.6534 16.2306 11.6534C15.8481 11.6534 15.5381 11.9635 15.5381 12.3459V21.8642C14.5253 21.5811 13.78 20.6506 13.78 19.5487V12.3459C13.78 11.02 14.8586 9.94138 16.1844 9.94138H18.8388V11.8337C18.8388 12.2161 19.1488 12.5262 19.5313 12.5262C19.9138 12.5262 20.2238 12.2161 20.2238 11.8337V9.94138H22.9244C24.2502 9.94138 25.3288 11.02 25.3288 12.3459V19.5487ZM28.9291 9.47854C28.9291 8.46697 29.7521 7.64397 30.7637 7.64397C31.7752 7.64397 32.5982 8.46697 32.5982 9.47854V10.1103C32.5982 11.1218 31.7752 11.9448 30.7637 11.9448C29.7521 11.9448 28.9291 11.1218 28.9291 10.1103V9.47854ZM33.1231 35.886H31.4655V26.0529C31.4655 26.0175 31.462 25.983 31.4568 25.949V25.2219C31.4568 24.8396 31.1468 24.5295 30.7644 24.5295C30.3819 24.5295 30.0719 24.8396 30.0719 25.2219V35.886H28.4143V22.5209H33.1231V35.886ZM35.0889 23.8767H34.508V17.9868C34.508 17.6044 34.198 17.2943 33.8155 17.2943C33.4331 17.2943 33.1231 17.6044 33.1231 17.9868V21.1359H28.4143V20.191C28.4143 19.8086 28.1042 19.4985 27.7218 19.4985C27.3393 19.4985 27.0293 19.8086 27.0293 20.191V23.8768H26.4384C25.9978 23.8768 25.6393 23.5183 25.6393 23.0777V22.1884C26.3035 21.5055 26.7138 20.5744 26.7138 19.5487V14.6517C27.4853 13.8116 28.5791 13.3299 29.7196 13.3299H31.8076C34.0575 13.3299 35.8879 15.1603 35.8879 17.4101V23.0776H35.888C35.888 23.5182 35.5295 23.8767 35.0889 23.8767Z" fill="#D72134"/>
<path d="M23.3676 26.6521C23.2388 26.5226 23.0601 26.4492 22.878 26.4492C22.6959 26.4492 22.5172 26.5227 22.3884 26.6521C22.2589 26.7809 22.1855 26.9596 22.1855 27.1417C22.1855 27.3238 22.2589 27.5025 22.3884 27.6313C22.5172 27.76 22.6959 27.8342 22.878 27.8342C23.0601 27.8342 23.2381 27.7601 23.3676 27.6313C23.4964 27.5025 23.5705 27.3238 23.5705 27.1417C23.5705 26.9596 23.4964 26.7809 23.3676 26.6521Z" fill="#D72134"/>
<path d="M20.0219 13.9334C19.8931 13.8046 19.7151 13.7305 19.5323 13.7305C19.3502 13.7305 19.1715 13.8045 19.0427 13.9334C18.9139 14.0621 18.8398 14.2408 18.8398 14.4229C18.8398 14.6051 18.9139 14.7837 19.0427 14.9125C19.1715 15.0413 19.3502 15.1154 19.5323 15.1154C19.7151 15.1154 19.8931 15.0413 20.0219 14.9125C20.1514 14.7837 20.2248 14.6051 20.2248 14.4229C20.2248 14.2408 20.1514 14.0621 20.0219 13.9334Z" fill="#D72134"/>
</svg>
