<svg width="40" height="40" viewBox="0 0 40 40" fill="none" xmlns="http://www.w3.org/2000/svg">
<path d="M11.2079 11.2266C10.8355 11.2266 10.5332 11.5288 10.5332 11.9013C10.5332 12.2737 10.8355 12.576 11.2079 12.576C11.5804 12.576 11.8826 12.2737 11.8826 11.9013C11.8826 11.5288 11.5804 11.2266 11.2079 11.2266Z" fill="#D72134"/>
<path d="M17.2791 23.8433H15.2551V21.8192C15.2551 21.4467 14.953 21.1445 14.5804 21.1445C14.2078 21.1445 13.9058 21.4467 13.9058 21.8192V23.8433H11.8817C11.5092 23.8433 11.207 24.1454 11.207 24.5179C11.207 24.8904 11.5092 25.1926 11.8817 25.1926H13.9058V27.2166C13.9058 27.5892 14.2079 27.8913 14.5804 27.8913C14.9529 27.8913 15.2551 27.5892 15.2551 27.2166V25.1926H17.2791C17.6517 25.1926 17.9538 24.8905 17.9538 24.5179C17.9538 24.1453 17.6518 23.8433 17.2791 23.8433Z" fill="#D72134"/>
<path d="M35.4885 24.4513C33.997 21.8681 30.6993 20.984 28.1156 22.4758L25.375 24.058V18.1991C25.375 17.4748 25.1355 16.756 24.7004 16.1751L21.327 11.6773V9.76209C22.1123 9.48357 22.6764 8.73369 22.6764 7.85406V4.75057C22.6763 3.63453 21.7683 2.72656 20.6522 2.72656H8.50796C7.39192 2.72656 6.48388 3.63453 6.48388 4.75057V7.85413C6.48388 8.73362 7.04801 9.48364 7.83325 9.76216V11.6774L4.4596 16.1754C4.02468 16.7561 3.78516 17.4748 3.78516 18.1991V31.2656C3.78516 33.1257 5.29848 34.639 7.15853 34.639H18.0013C19.5141 37.1748 22.7761 38.0234 25.3331 36.547L33.5131 31.8242C36.0739 30.3454 36.9874 27.0486 35.4885 24.4513ZM7.83325 4.75057C7.83325 4.37854 8.13593 4.07586 8.5079 4.07586H20.6522C21.0242 4.07586 21.3269 4.37854 21.3269 4.75057V7.85413C21.3269 8.22617 21.0242 8.52878 20.6522 8.52878H8.50796C8.13592 8.52878 7.83331 8.2261 7.83331 7.85413V4.75057H7.83325ZM5.53942 16.9846L9.04767 12.3071C9.13525 12.1903 9.18261 12.0482 9.18261 11.9022V9.87821H19.9775V11.2276H13.9054C13.5328 11.2276 13.2307 11.5297 13.2307 11.9023C13.2307 12.2749 13.5328 12.577 13.9054 12.577H20.3149L23.6205 16.9844C23.8366 17.2728 23.9708 17.6179 24.0113 17.9745H5.14889C5.18937 17.6179 5.32358 17.2728 5.53942 16.9846ZM7.1586 33.2896C6.04255 33.2896 5.13459 32.3817 5.13459 31.2656V30.5842H17.3925C17.1785 31.459 17.1799 32.3933 17.4249 33.2897H7.1586V33.2896ZM17.9217 29.2415H5.13452V19.3237H24.0256V24.837L19.9356 27.1986C19.0828 27.6912 18.3935 28.3925 17.9217 29.2415ZM24.6585 35.3784C22.7223 36.4965 20.2481 35.8353 19.1293 33.8977C18.0051 31.9414 18.6864 29.4784 20.6104 28.3671L24.2726 26.2527L28.3207 33.264L24.6585 35.3784ZM32.8383 30.6557L29.4893 32.5893L25.4411 25.5779L28.7903 23.6444C30.7278 22.5259 33.2011 23.1883 34.3199 25.1259C35.4436 27.0733 34.7603 29.5458 32.8383 30.6557Z" fill="#D72134"/>
</svg>
