<svg width="627" height="108" viewBox="0 0 627 108" fill="none" xmlns="http://www.w3.org/2000/svg">
<g clip-path="url(#clip0_6487_74930)">
<path d="M10 29.8992V0.699219H5V29.8992H10Z" fill="#1F2251"/>
<path d="M13.5996 19.4016C13.5996 26.1016 18.0996 30.5016 25.2996 30.5016C29.6996 30.5016 33.0996 28.9016 35.4996 25.7016L32.1996 22.7016C30.1996 25.1016 28.0996 26.3016 25.2996 26.3016C21.3996 26.3016 18.6996 24.1016 18.5996 20.8016H36.3996V19.3016C36.2996 13.0016 31.7996 8.10156 24.9996 8.10156C18.3996 8.10156 13.5996 12.8016 13.5996 19.4016ZM31.3996 17.3016H18.5996C18.8996 14.3016 21.4996 12.2016 25.0996 12.2016C28.5996 12.2016 31.1996 14.3016 31.3996 17.3016Z" fill="#1F2251"/>
<path d="M38.6 24.2016C38.6 28.0016 41.7 30.5016 46.5 30.5016C49.7 30.5016 52.6 29.3016 53.9 27.5016H54V29.9016H58.5V15.9016C58.5 11.1016 54.8 8.10156 48.9 8.10156C43.5 8.10156 39.3 11.1016 38.5 15.5016L43.2 16.5016C43.8 13.9016 46 12.3016 49 12.3016C51.6 12.3016 53.3 13.3016 53.3 14.9016C53.3 16.2016 52.1 16.6016 47.1 17.5016C41.1 18.4016 38.6 20.4016 38.6 24.2016ZM53.7 22.2016C53.7 24.4016 50.8 26.3016 47.2 26.3016C44.5 26.3016 43.3 25.6016 43.3 23.9016C43.3 22.4016 44.7 21.6016 48.7 20.9016C51.8 20.3016 53.1 19.8016 53.7 18.9016H53.8V22.2016H53.7Z" fill="#1F2251"/>
<path d="M62.6992 29.8992H67.6992V19.1992C67.6992 15.0992 69.6992 12.8992 72.7992 12.8992C73.5992 12.8992 74.5992 13.0992 75.7992 13.2992L76.8992 8.79922C75.6992 8.39922 74.5992 8.19922 73.4992 8.19922C71.0992 8.19922 68.9992 9.09922 67.4992 10.5992H67.3992V8.59922H62.6992V29.8992V29.8992Z" fill="#1F2251"/>
<path d="M113.901 29.9V8.7H108.901V29.9H113.901ZM114.101 5.1V0H108.801V5.1H114.101Z" fill="#1F2251"/>
<path d="M118.4 29.9016H123.4V18.3016C123.4 14.8016 126 12.5016 129.8 12.5016C133.5 12.5016 135.8 14.7016 135.8 18.3016V29.9016H140.8V17.5016C140.8 11.9016 136.7 8.10156 130.7 8.10156C127.8 8.10156 125.1 9.10156 123.4 10.9016H123.3V8.70156H118.5V29.9016H118.4Z" fill="#1F2251"/>
<path d="M145.5 33.9992C147.8 37.5992 151.6 39.3992 156.6 39.3992C163 39.3992 167.6 35.2992 167.6 29.5992V8.59922H162.8V10.9992H162.7C161.1 9.19922 158.4 8.19922 155.3 8.19922C148.9 8.19922 144.1 12.9992 144.1 19.2992C144.1 25.6992 148.9 30.4992 155.5 30.4992C158.6 30.4992 161.2 29.4992 162.7 27.6992H162.8V29.6992C162.8 31.2992 162.2 32.5992 161 33.6992C159.8 34.7992 158.4 35.2992 156.6 35.2992C153.2 35.2992 151.3 34.1992 149.3 31.2992L145.5 33.9992ZM162.6 20.5992C162.6 23.5992 159.7 26.0992 156 26.0992C151.7 26.0992 149.1 23.4992 149.1 19.2992C149.1 15.2992 151.9 12.5992 156.1 12.5992C159.7 12.5992 162.7 15.0992 162.7 17.9992V20.5992H162.6Z" fill="#1F2251"/>
<path d="M173.1 32.5984V35.0984C176.9 34.6984 178.8 32.6984 178.8 29.1984V24.3984H172.9V29.7984H175.1C175.2 31.4984 174.6 32.2984 173.1 32.5984Z" fill="#1F2251"/>
<path d="M189.8 19.2992C189.8 25.7992 194.6 30.4992 201.2 30.4992C204.4 30.4992 207 29.4992 208.6 27.6992H208.7V29.8992H213.3V0.699219H208.3V10.6992H208.2C206.6 9.09922 203.9 8.09922 200.9 8.09922C194.8 7.99922 189.7 12.9992 189.8 19.2992ZM208.5 20.5992C208.5 23.5992 205.5 26.0992 201.8 26.0992C197.5 26.0992 194.8 23.3992 194.8 19.2992C194.8 15.1992 197.6 12.4992 201.7 12.4992C205.4 12.4992 208.5 14.8992 208.5 17.8992V20.5992V20.5992Z" fill="#1F2251"/>
<path d="M222.8 29.9V8.7H217.8V29.9H222.8ZM222.9 5.1V0H217.6V5.1H222.9Z" fill="#1F2251"/>
<path d="M226.1 22.8016C226.5 25.2016 227.8 27.0016 230 28.4016C232.2 29.8016 234.9 30.4016 238.1 30.4016C244 30.4016 248.2 27.6016 248.2 24.0016C248.2 20.5016 245.9 18.5016 238.6 17.1016C233.3 16.1016 232.2 15.5016 232.2 14.5016C232.2 13.1016 234.1 12.1016 236.5 12.1016C239.7 12.1016 242.3 13.5016 243.1 15.9016L247.7 14.7016C246.6 10.9016 241.9 8.10156 236.5 8.10156C231.1 8.10156 227.2 10.9016 227.2 14.7016C227.2 18.1016 229.7 19.9016 236.5 21.1016C241.9 22.0016 243.2 22.7016 243.2 24.1016C243.2 25.5016 241.2 26.5016 238.1 26.5016C234 26.5016 231.5 24.9016 230.7 21.9016L226.1 22.8016Z" fill="#1F2251"/>
<path d="M250.499 19.2991C250.399 25.6991 255.5 30.5991 262.2 30.4991C264.9 30.4991 267.3 29.7991 269.2 28.4991C271.2 27.0991 272.499 25.2991 273.099 22.9991L268.499 21.6991C267.499 24.6991 265.5 26.0991 262.2 26.0991C258.1 26.0991 255.399 23.3991 255.399 19.2991C255.399 15.1991 258 12.4991 262.2 12.4991C265.4 12.4991 267.599 14.0991 268.499 16.8991L273.099 15.5991C272.499 13.2991 271.2 11.4991 269.2 10.0991C267.2 8.69913 264.9 8.09913 262.2 8.09913C255.6 7.99913 250.399 12.9991 250.499 19.2991Z" fill="#1F2251"/>
<path d="M275.4 19.2991C275.3 25.5991 280.5 30.5991 287.2 30.4991C294 30.4991 299 25.6991 299 19.2991C299.1 13.0991 293.9 7.9991 287.2 8.0991C280.5 7.9991 275.2 13.0991 275.4 19.2991ZM294 19.2991C294 21.2991 293.4 22.8991 292.1 24.1991C290.9 25.4991 289.2 26.0991 287.2 26.0991C285.2 26.0991 283.5 25.4991 282.2 24.1991C281 22.8991 280.3 21.2991 280.3 19.2991C280.3 17.2991 280.9 15.6991 282.2 14.3991C283.5 13.0991 285.1 12.4991 287.2 12.4991C289.2 12.4991 290.9 13.0991 292.1 14.3991C293.4 15.5991 294 17.2991 294 19.2991Z" fill="#1F2251"/>
<path d="M313.799 29.8992L324.299 8.69922H318.799L311.599 24.1992H311.499L304.199 8.69922H298.699L309.199 29.8992H313.799Z" fill="#1F2251"/>
<path d="M323.801 19.4C323.801 26.1 328.301 30.5 335.501 30.5C339.901 30.5 343.301 28.9 345.701 25.7L342.401 22.7C340.401 25.1 338.301 26.3 335.501 26.3C331.601 26.3 328.901 24.1 328.801 20.8H346.601V19.3C346.601 12.9 342.101 8 335.301 8C328.601 8.1 323.801 12.8 323.801 19.4ZM341.601 17.3H328.801C329.101 14.3 331.701 12.2 335.301 12.2C338.801 12.2 341.401 14.3 341.601 17.3Z" fill="#1F2251"/>
<path d="M350.199 29.8992H355.199V19.1992C355.199 15.0992 357.199 12.8992 360.299 12.8992C361.099 12.8992 362.099 13.0992 363.299 13.2992L364.399 8.79922C363.199 8.39922 362.099 8.19922 360.999 8.19922C358.599 8.19922 356.499 9.09922 354.999 10.5992H354.899V8.59922H350.199V29.8992V29.8992Z" fill="#1F2251"/>
<path d="M375.2 38.8992L390 8.69922H384.4L377.6 23.2992H377.5L370.6 8.69922H365L374.9 28.5992L369.6 38.8992H375.2V38.8992Z" fill="#1F2251"/>
<path d="M388.3 32.5984V35.0984C392.1 34.6984 394 32.6984 394 29.1984V24.3984H388.1V29.7984H390.3C390.3 31.4984 389.7 32.2984 388.3 32.5984Z" fill="#1F2251"/>
<path d="M410.1 31.2984V10.0984H405.1V31.2984H410.1V31.2984ZM410.2 6.49844V1.39844H404.9V6.49844H410.2Z" fill="#1F2251"/>
<path d="M414.5 31.3H419.5V19.7C419.5 16.2 422.1 13.9 425.9 13.9C429.6 13.9 431.9 16.1 431.9 19.7V31.3H436.9V18.9C436.9 13.3 432.8 9.5 426.8 9.5C423.9 9.5 421.2 10.5 419.5 12.3H419.4V10.1H414.6V31.3H414.5Z" fill="#1F2251"/>
<path d="M441.1 31.3H446.1V19.7C446.1 16.2 448.7 13.9 452.5 13.9C456.2 13.9 458.5 16.1 458.5 19.7V31.3H463.5V18.9C463.5 13.3 459.4 9.5 453.4 9.5C450.5 9.5 447.8 10.5 446.1 12.3H446V10.1H441.2V31.3H441.1Z" fill="#1F2251"/>
<path d="M505.2 31.3016L515.7 10.1016H510.2L503 25.6016H502.9L495.6 10.1016H490.1L500.6 31.3016H505.2Z" fill="#1F2251"/>
<path d="M516.2 25.6C516.2 29.4 519.3 31.9 524.1 31.9C527.3 31.9 530.2 30.7 531.5 28.9H531.6V31.3H536.1V17.3C536.1 12.5 532.4 9.5 526.5 9.5C521.1 9.5 516.9 12.5 516.1 16.9L520.8 17.9C521.4 15.3 523.6 13.7 526.6 13.7C529.2 13.7 530.9 14.7 530.9 16.3C530.9 17.6 529.7 18 524.7 18.9C518.7 19.8 516.2 21.8 516.2 25.6ZM531.3 23.6C531.3 25.8 528.4 27.7 524.8 27.7C522.1 27.7 520.9 27 520.9 25.3C520.9 23.8 522.3 23 526.3 22.3C529.4 21.7 530.7 21.2 531.3 20.3H531.4V23.6H531.3Z" fill="#1F2251"/>
<path d="M554.8 14.3V10.1H548V5H543V10.1H538.1V14.3H543V25.1C543 29.4 545 31.2 549.8 31.2H553.9V26.6H550.2C548.4 26.6 548 26.2 548 24.8V14.3H554.8Z" fill="#1F2251"/>
<path d="M562.899 31.2984V10.0984H557.899V31.2984H562.899V31.2984ZM562.999 6.49844V1.39844H557.699V6.49844H562.999Z" fill="#1F2251"/>
<path d="M566.599 20.7014C566.499 27.0014 571.699 32.0014 578.399 31.9014C585.199 31.9014 590.199 27.1014 590.199 20.7014C590.299 14.5014 585.099 9.40145 578.399 9.50145C571.699 9.40145 566.499 14.5014 566.599 20.7014ZM585.199 20.7014C585.199 22.7014 584.599 24.3014 583.299 25.6014C582.099 26.9014 580.399 27.5014 578.399 27.5014C576.399 27.5014 574.699 26.9014 573.399 25.6014C572.199 24.3014 571.499 22.7014 571.499 20.7014C571.499 18.7014 572.099 17.1014 573.399 15.8014C574.699 14.5014 576.299 13.9014 578.399 13.9014C580.499 13.9014 582.099 14.5014 583.299 15.8014C584.599 17.0014 585.199 18.7014 585.199 20.7014Z" fill="#1F2251"/>
<path d="M593.801 31.3H598.801V19.7C598.801 16.2 601.401 13.9 605.201 13.9C608.901 13.9 611.201 16.1 611.201 19.7V31.3H616.201V18.9C616.201 13.3 612.101 9.5 606.101 9.5C603.201 9.5 600.501 10.5 598.801 12.3H598.701V10.1H593.901V31.3H593.801Z" fill="#1F2251"/>
<path d="M621.399 34.0008V36.5008C625.199 36.1008 627.099 34.1008 627.099 30.6008V25.8008H621.199V31.2008H623.399C623.399 32.9008 622.899 33.7008 621.399 34.0008Z" fill="#1F2251"/>
<path d="M0 77.2008C0 83.9008 4.5 88.3008 11.7 88.3008C16.1 88.3008 19.5 86.7008 21.9 83.5008L18.6 80.5008C16.6 82.9008 14.5 84.1008 11.7 84.1008C7.8 84.1008 5.1 81.9008 5 78.6008H22.8V77.1008C22.8 70.7008 18.3 65.8008 11.5 65.8008C4.8 65.9008 0 70.6008 0 77.2008ZM17.8 75.1008H5C5.3 72.1008 7.9 70.0008 11.5 70.0008C15 70.0008 17.6 72.1008 17.8 75.1008Z" fill="#1F2251"/>
<path d="M28.3 87.7016L34.5 80.1016H34.6L40.8 87.7016H47L37.7 77.0016L46.6 66.6016H40.4L34.5 74.0016H34.4L28.5 66.6016H22.3L31.2 77.0016L22 87.8016H28.3V87.7016Z" fill="#1F2251"/>
<path d="M49 96.6999H54V85.6999C55.5 87.2999 58.2 88.2999 61 88.2999C67.3 88.2999 72 83.4999 72 77.0999C72.1 70.7999 67.2 65.7999 61 65.8999C58 65.8999 55.4 66.8999 53.8 68.5999H53.7V66.4999H49V96.6999ZM67.1 77.0999C67.1 79.0999 66.5 80.7999 65.2 82.0999C64 83.2999 62.4 83.9999 60.4 83.9999C56.8 83.9999 54 81.4999 54 78.4999V75.6999C54 72.7999 56.9 70.2999 60.5 70.2999C64.4 70.2999 67.1 72.9999 67.1 77.0999Z" fill="#1F2251"/>
<path d="M75.6992 87.7H80.6992V77C80.6992 72.9 82.6992 70.7 85.7992 70.7C86.5992 70.7 87.5992 70.9 88.7992 71.1L89.8992 66.6C88.6992 66.2 87.5992 66 86.4992 66C84.0992 66 81.9992 66.9 80.4992 68.4H80.3992V66.4H75.6992V87.7V87.7Z" fill="#1F2251"/>
<path d="M90.3008 77.2008C90.3008 83.9008 94.8008 88.3008 102.001 88.3008C106.401 88.3008 109.801 86.7008 112.201 83.5008L108.901 80.5008C106.901 82.9008 104.801 84.1008 102.001 84.1008C98.1008 84.1008 95.4008 81.9008 95.3008 78.6008H113.001V77.1008C113.001 70.7008 108.501 65.8008 101.701 65.8008C95.1008 65.9008 90.3008 70.6008 90.3008 77.2008ZM108.101 75.1008H95.3008C95.6008 72.1008 98.2008 70.0008 101.801 70.0008C105.201 70.0008 107.801 72.1008 108.101 75.1008Z" fill="#1F2251"/>
<path d="M115 80.7C115.4 83.1 116.7 84.9 118.9 86.3C121.1 87.7 123.8 88.3 127 88.3C132.9 88.3 137.1 85.5 137.1 81.9C137.1 78.4 134.8 76.4 127.5 75C122.2 74 121.1 73.4 121.1 72.4C121.1 71 123 70 125.4 70C128.6 70 131.2 71.4 132 73.8L136.6 72.6C135.5 68.8 130.8 66 125.4 66C120 66 116.1 68.8 116.1 72.6C116.1 76 118.6 77.8 125.4 79C130.8 79.9 132.1 80.6 132.1 82C132.1 83.4 130.1 84.4 127 84.4C122.9 84.4 120.4 82.8 119.6 79.8L115 80.7Z" fill="#1F2251"/>
<path d="M138.699 80.7C139.099 83.1 140.399 84.9 142.599 86.3C144.799 87.7 147.499 88.3 150.699 88.3C156.599 88.3 160.799 85.5 160.799 81.9C160.799 78.4 158.499 76.4 151.199 75C145.899 74 144.799 73.4 144.799 72.4C144.799 71 146.699 70 149.099 70C152.299 70 154.899 71.4 155.699 73.8L160.299 72.6C159.199 68.8 154.499 66 149.099 66C143.699 66 139.799 68.8 139.799 72.6C139.799 76 142.299 77.8 149.099 79C154.499 79.9 155.799 80.6 155.799 82C155.799 83.4 153.799 84.4 150.699 84.4C146.599 84.4 144.099 82.8 143.299 79.8L138.699 80.7Z" fill="#1F2251"/>
<path d="M168.899 87.7008V66.5008H163.899V87.7008H168.899ZM168.999 62.9008V57.8008H163.699V62.9008H168.999Z" fill="#1F2251"/>
<path d="M199.801 87.7H204.801V76.2C204.801 72.7 207.401 70.4 211.201 70.4C214.901 70.4 217.201 72.6 217.201 76.2V87.8H222.201V75.4C222.201 69.8 218.101 66 212.101 66C209.201 66 206.501 67 204.801 68.8H204.701V66.6H199.901V87.7H199.801Z" fill="#1F2251"/>
<path d="M236.5 80.7992C236.5 84.5992 239.6 87.0992 244.4 87.0992C247.6 87.0992 250.5 85.8992 251.8 84.0992H251.9V86.4992H256.4V72.4992C256.4 67.6992 252.7 64.6992 246.8 64.6992C241.4 64.6992 237.2 67.6992 236.4 72.0992L241.1 73.0992C241.7 70.4992 243.9 68.8992 246.9 68.8992C249.5 68.8992 251.2 69.8992 251.2 71.4992C251.2 72.7992 250 73.1992 245 74.0992C239 74.9992 236.5 76.8992 236.5 80.7992ZM251.6 78.6992C251.6 80.8992 248.7 82.7992 245.1 82.7992C242.4 82.7992 241.2 82.0992 241.2 80.3992C241.2 78.8992 242.6 78.0992 246.6 77.3992C249.7 76.7992 251 76.2992 251.6 75.3992H251.7V78.6992H251.6Z" fill="#1F2251"/>
<path d="M260.6 86.4992H265.6V74.8992C265.6 71.3992 268.2 69.0992 272 69.0992C275.7 69.0992 278 71.2992 278 74.8992V86.4992H283V74.0992C283 68.4992 278.9 64.6992 272.9 64.6992C270 64.6992 267.3 65.6992 265.6 67.4992H265.5V65.2992H260.7V86.4992H260.6Z" fill="#1F2251"/>
<path d="M286.4 75.9008C286.4 82.4008 291.2 87.1008 297.8 87.1008C301 87.1008 303.6 86.1008 305.2 84.3008H305.3V86.5008H309.9V57.3008H304.9V67.3008H304.8C303.2 65.7008 300.5 64.7008 297.5 64.7008C291.3 64.5008 286.2 69.6008 286.4 75.9008ZM305 77.2008C305 80.2008 302 82.7008 298.3 82.7008C294 82.7008 291.3 80.0008 291.3 75.9008C291.3 71.8008 294.1 69.1008 298.2 69.1008C301.9 69.1008 305 71.5008 305 74.5008V77.2008Z" fill="#1F2251"/>
<path d="M287.199 31C293.827 31 299.199 25.8513 299.199 19.5C299.199 13.1487 293.827 8 287.199 8C280.572 8 275.199 13.1487 275.199 19.5C275.199 25.8513 280.572 31 287.199 31Z" fill="#FAA838"/>
<path d="M326 75.9008C326 82.4008 330.8 87.1008 337.4 87.1008C340.6 87.1008 343.2 86.1008 344.8 84.3008H344.9V86.5008H349.5V57.3008H344.5V67.3008H344.4C342.8 65.7008 340.1 64.7008 337.1 64.7008C330.9 64.5008 325.9 69.6008 326 75.9008ZM344.6 77.2008C344.6 80.2008 341.6 82.7008 337.9 82.7008C333.6 82.7008 330.9 80.0008 330.9 75.9008C330.9 71.8008 333.7 69.1008 337.8 69.1008C341.5 69.1008 344.6 71.5008 344.6 74.5008V77.2008Z" fill="#1F2251"/>
<path d="M358.999 86.5016V65.3016H353.999V86.5016H358.999ZM359.099 61.7016V56.6016H353.799V61.7016H359.099Z" fill="#1F2251"/>
<path d="M362.199 79.4031C362.599 81.8031 363.899 83.6031 366.099 85.0031C368.299 86.4031 370.999 87.0031 374.199 87.0031C380.099 87.0031 384.299 84.2031 384.299 80.6031C384.299 77.1031 381.999 75.1031 374.699 73.7031C369.399 72.7031 368.299 72.1031 368.299 71.1031C368.299 69.7031 370.199 68.7031 372.599 68.7031C375.799 68.7031 378.399 70.1031 379.199 72.5031L383.799 71.3031C382.699 67.5031 377.999 64.7031 372.599 64.7031C367.199 64.7031 363.299 67.5031 363.299 71.3031C363.299 74.7031 365.799 76.5031 372.599 77.7031C377.999 78.6031 379.299 79.3031 379.299 80.7031C379.299 82.1031 377.299 83.1031 374.199 83.1031C370.099 83.1031 367.599 81.5031 366.799 78.5031L362.199 79.4031Z" fill="#1F2251"/>
<path d="M386.699 75.901C386.599 82.301 391.699 87.201 398.399 87.101C401.099 87.101 403.499 86.401 405.399 85.101C407.399 83.701 408.699 81.901 409.299 79.601L404.699 78.301C403.699 81.301 401.699 82.701 398.399 82.701C394.299 82.701 391.599 80.001 391.599 75.901C391.599 71.801 394.199 69.101 398.399 69.101C401.599 69.101 403.799 70.701 404.699 73.501L409.299 72.201C408.699 69.901 407.399 68.101 405.399 66.701C403.399 65.301 401.099 64.701 398.399 64.701C391.699 64.501 386.599 69.601 386.699 75.901Z" fill="#1F2251"/>
<path d="M411.499 75.9009C411.399 82.2009 416.599 87.2009 423.299 87.1009C430.099 87.1009 435.099 82.3009 435.099 75.9009C435.199 69.7009 429.999 64.6009 423.299 64.7009C416.599 64.5009 411.399 69.7009 411.499 75.9009ZM430.199 75.9009C430.199 77.9009 429.599 79.5009 428.299 80.8009C427.099 82.1009 425.399 82.7009 423.399 82.7009C421.399 82.7009 419.699 82.1009 418.399 80.8009C417.199 79.5009 416.499 77.9009 416.499 75.9009C416.499 73.9009 417.099 72.3009 418.399 71.0009C419.699 69.7009 421.299 69.1009 423.399 69.1009C425.399 69.1009 427.099 69.7009 428.299 71.0009C429.499 72.2009 430.199 73.9009 430.199 75.9009Z" fill="#1F2251"/>
<path d="M464.699 86.5008H469.699V75.8008C469.699 71.7008 471.699 69.5008 474.799 69.5008C475.599 69.5008 476.599 69.7008 477.799 69.9008L478.899 65.4008C477.699 65.0008 476.599 64.8008 475.499 64.8008C473.099 64.8008 470.999 65.7008 469.499 67.2008H469.399V65.2008H464.699V86.5008V86.5008Z" fill="#1F2251"/>
<path d="M478.9 79.4031C479.3 81.8031 480.6 83.6031 482.8 85.0031C485 86.4031 487.7 87.0031 490.9 87.0031C496.8 87.0031 501 84.2031 501 80.6031C501 77.1031 498.7 75.1031 491.4 73.7031C486.1 72.7031 485 72.1031 485 71.1031C485 69.7031 486.9 68.7031 489.3 68.7031C492.5 68.7031 495.1 70.1031 495.9 72.5031L500.5 71.3031C499.4 67.5031 494.7 64.7031 489.3 64.7031C483.9 64.7031 480 67.5031 480 71.3031C480 74.7031 482.5 76.5031 489.3 77.7031C494.7 78.6031 496 79.3031 496 80.7031C496 82.1031 494 83.1031 490.9 83.1031C486.8 83.1031 484.3 81.5031 483.5 78.5031L478.9 79.4031Z" fill="#1F2251"/>
<path d="M503.4 75.9031C503.4 82.6031 507.9 87.0031 515.1 87.0031C519.5 87.0031 522.9 85.4031 525.3 82.2031L522 79.2031C520 81.6031 517.9 82.8031 515.1 82.8031C511.2 82.8031 508.5 80.6031 508.4 77.3031H526.2V76.0031C526.2 69.6031 521.7 64.7031 514.9 64.7031C508.2 64.7031 503.4 69.3031 503.4 75.9031ZM521.2 73.9031H508.4C508.7 70.9031 511.3 68.8031 514.9 68.8031C518.4 68.8031 521 70.9031 521.2 73.9031Z" fill="#1F2251"/>
<path d="M447.199 85.8008H444.299V88.6008H447.199V85.8008Z" fill="#20A2C4"/>
<path d="M450 82.9023H447.1V85.7023H450V82.9023Z" fill="#20A2C4"/>
<path d="M455.8 82.9023H452.9V85.7023H455.8V82.9023Z" fill="#20A2C4"/>
<path d="M444.3 82.9023H441.4V85.7023H444.3V82.9023Z" fill="#20A2C4"/>
<path d="M441.5 80.1016H438.6V82.9016H441.5V80.1016Z" fill="#20A2C4"/>
<path d="M447.199 80.1016H444.299V82.9016H447.199V80.1016Z" fill="#20A2C4"/>
<path d="M452.9 80.1016H450V82.9016H452.9V80.1016Z" fill="#20A2C4"/>
<path d="M458.599 80.1016H455.699V82.9016H458.599V80.1016Z" fill="#20A2C4"/>
<path d="M452.9 85.8008H450V88.6008H452.9V85.8008Z" fill="#20A2C4"/>
<path d="M458.6 64.6016H438.6V80.1016H458.6V64.6016Z" fill="#20A2C4"/>
<path d="M477.4 31.8984C483.752 31.8984 488.9 26.7497 488.9 20.3984C488.9 14.0472 483.752 8.89844 477.4 8.89844C471.049 8.89844 465.9 14.0472 465.9 20.3984C465.9 26.7497 471.049 31.8984 477.4 31.8984Z" stroke="#D72134"/>
<path d="M477.4 28.8984C482.095 28.8984 485.9 25.0929 485.9 20.3984C485.9 15.704 482.095 11.8984 477.4 11.8984C472.706 11.8984 468.9 15.704 468.9 20.3984C468.9 25.0929 472.706 28.8984 477.4 28.8984Z" stroke="#D72134"/>
<path d="M477.4 25.8984C480.438 25.8984 482.9 23.436 482.9 20.3984C482.9 17.3609 480.438 14.8984 477.4 14.8984C474.363 14.8984 471.9 17.3609 471.9 20.3984C471.9 23.436 474.363 25.8984 477.4 25.8984Z" stroke="#D72134"/>
<path d="M477.4 22.8984C478.781 22.8984 479.9 21.7791 479.9 20.3984C479.9 19.0177 478.781 17.8984 477.4 17.8984C476.02 17.8984 474.9 19.0177 474.9 20.3984C474.9 21.7791 476.02 22.8984 477.4 22.8984Z" stroke="#D72134"/>
<g clip-path="url(#clip1_6487_74930)">
<rect x="84.25" y="12.25" width="15.5" height="331.5" stroke="#00AD7C" stroke-width="4.5"/>
</g>
<path d="M189.2 86.8008C187.7 87.4008 186.1 87.8008 184.3 87.8008C182.5 87.8008 180.9 87.4008 179.4 86.8008H189.2Z" fill="#D72134"/>
<path d="M193.401 83.8008C192.701 84.6008 191.901 85.2008 191.101 85.8008H177.601C176.701 85.2008 175.901 84.6008 175.301 83.8008H193.401Z" fill="#D72134"/>
<path d="M195.701 79.8008C195.501 80.5008 195.201 81.2008 194.801 81.8008H173.701C173.301 81.2008 173.001 80.5008 172.801 79.8008H195.701Z" fill="#D72134"/>
<path d="M196.301 76.3008C196.301 76.8008 196.301 77.3008 196.201 77.8008H172.401C172.301 77.3008 172.301 76.8008 172.301 76.3008C172.301 70.0008 177.701 64.8008 184.301 64.8008C190.901 64.8008 196.301 70.0008 196.301 76.3008Z" fill="#D72134"/>
</g>
<defs>
<clipPath id="clip0_6487_74930">
<rect width="627" height="108" fill="white"/>
</clipPath>
<clipPath id="clip1_6487_74930">
<rect width="20" height="21" fill="white" transform="translate(82 10)"/>
</clipPath>
</defs>
</svg>
