<svg width="1313" height="471" viewBox="0 0 1313 471" fill="none" xmlns="http://www.w3.org/2000/svg">
<g clip-path="url(#clip0_6452_65596)">
<path d="M0 100C0 44.7715 44.7715 0 100 0H1313V471H0V100Z" fill="white"/>
<path d="M0 100C0 44.7715 44.7715 0 100 0H1436C1438.21 0 1440 1.79086 1440 4V527C1440 529.209 1438.21 531 1436 531H3.99997C1.79083 531 0 529.209 0 527V100Z" fill="#1F2251"/>
<path d="M2048.73 1211.9L2048.73 496.924C2048.69 395.091 1996.06 297.438 1902.4 225.442C1808.74 153.446 1681.73 113 1549.29 113V113C1416.87 113 1289.88 153.449 1196.24 225.449C1102.6 297.448 1050 395.101 1050 496.924L1050 1211.9" stroke="#393D84" stroke-miterlimit="10"/>
<path d="M1961.74 1211.9L1961.74 496.924C1961.74 412.785 1918.28 332.092 1840.9 272.597C1763.53 213.101 1658.59 179.677 1549.17 179.677C1439.74 179.677 1334.8 213.101 1257.43 272.597C1180.05 332.092 1136.59 412.785 1136.59 496.924L1136.59 1211.9" stroke="#393D84" stroke-miterlimit="10"/>
<path d="M1874.67 1211.9L1874.67 496.924C1872.88 431.486 1837.81 369.193 1776.99 323.402C1716.17 277.611 1634.43 251.966 1549.31 251.966C1464.19 251.966 1382.46 277.611 1321.64 323.402C1260.82 369.193 1225.75 431.486 1223.95 496.924L1223.95 1211.9" stroke="#393D84" stroke-miterlimit="10"/>
<path d="M1787.69 1211.9L1787.69 496.924C1786.16 449.097 1760.38 403.626 1715.84 370.216C1671.31 336.807 1611.56 318.106 1549.34 318.106C1487.12 318.106 1427.37 336.807 1382.84 370.216C1338.3 403.626 1312.52 449.097 1310.98 496.924L1310.98 1211.9" stroke="#393D84" stroke-miterlimit="10"/>
<path fill-rule="evenodd" clip-rule="evenodd" d="M521.866 -202L-615 -202V170.304H-545.398V246.005H-454.766V323L361.828 323L361.828 246.005H452.452V170.304H521.866V-202Z" fill="#393D84"/>
</g>
<defs>
<clipPath id="clip0_6452_65596">
<path d="M0 100C0 44.7715 44.7715 0 100 0H1313V471H0V100Z" fill="white"/>
</clipPath>
</defs>
</svg>
