<svg width="304" height="325" viewBox="0 0 304 325" fill="none" xmlns="http://www.w3.org/2000/svg">
<path opacity="0.8" fill-rule="evenodd" clip-rule="evenodd" d="M319 352.969L319 111.232L273.406 111.232L273.406 166.77L227.813 166.77L227.813 111.232L182.219 111.232L182.219 166.77L136.779 166.77L136.779 111.232L91.1854 111.232L91.1854 166.77L45.5918 166.77L45.5918 111.234L91.1846 111.234L91.1846 55.5427L136.625 55.5427L136.625 0.00434807L91.1846 0.0043441L91.1846 55.5427L45.591 55.5427L45.591 111.232L-0.00153526 111.232L-0.0015564 352.969L319 352.969ZM182.219 55.5386L227.813 55.5386L227.813 111.23L273.406 111.23L273.406 55.5386L227.813 55.5386L227.813 0.000175134L182.219 0.000171148L182.219 55.5386ZM182.219 55.5386L136.779 55.5386L136.779 111.23L182.219 111.23L182.219 55.5386Z" fill="#D5D9FF"/>
</svg>
