<svg width="320" height="545" viewBox="0 0 320 545" fill="none" xmlns="http://www.w3.org/2000/svg">
<path opacity="0.15" d="M218.726 8.67378L-68.7265 8.6738C-52.8706 3.06136 -35.4802 3.10771e-05 -17.5783 2.9512e-05L167.578 1.33251e-05C185.48 1.17601e-05 202.871 3.06134 218.726 8.67378ZM246.091 21.6845L-96.0908 21.6845C-101.206 24.7458 -106.32 28.3173 -111.18 31.8889L261.179 31.8889C256.32 28.0622 251.206 24.7458 246.091 21.6845ZM311.305 101.279C309.77 96.9421 307.98 92.6052 305.934 88.2683L-155.934 88.2684C-157.98 92.6052 -159.77 96.687 -161.305 101.279L311.305 101.279ZM-168.721 132.658C-169.489 139.035 -170 145.413 -170 151.791L-170 599L320 599L320 152.046C320 145.413 319.488 139.035 318.721 132.913L-168.721 132.913L-168.721 132.658ZM317.443 124.239C316.675 119.647 315.397 114.8 314.118 110.463L-164.374 110.463C-165.652 115.055 -166.675 119.647 -167.698 124.239L317.443 124.239ZM284.963 55.1039C281.639 51.2772 278.314 47.4506 274.734 43.879L-124.478 43.8791C-128.058 47.4506 -131.639 51.0221 -134.708 55.1039L284.963 55.1039ZM300.819 78.0639C298.518 73.9821 295.96 69.9003 293.403 66.0737L-143.147 66.0737C-145.705 69.9004 -148.262 73.9822 -150.564 78.0639L300.819 78.0639Z" fill="#8083B8"/>
</svg>
