<svg width="145" height="199" viewBox="0 0 145 199" fill="none" xmlns="http://www.w3.org/2000/svg">
<path opacity="0.8" fill-rule="evenodd" clip-rule="evenodd" d="M246.109 272.315L246.109 85.8148L210.934 85.8148L210.934 128.663L175.759 128.663L175.759 85.8152L210.933 85.8152L210.933 42.8493L175.758 42.8493L175.758 0.00148921L140.583 0.00148614L140.583 42.8493L105.525 42.8493L105.525 85.8148L70.3507 85.8148L70.3507 128.663L35.1752 128.663L35.1752 85.8148L-1.42132e-05 85.8148L-3.05176e-05 272.315L246.109 272.315ZM140.583 42.8493L175.758 42.8493L175.758 85.8148L140.583 85.8148L140.583 128.663L105.526 128.663L105.526 85.8152L140.583 85.8152L140.583 42.8493ZM105.406 42.8476L70.349 42.8476L70.349 -0.000198471L105.406 -0.000195406L105.406 42.8476ZM70.349 42.8476L70.349 85.8135L35.1736 85.8135L35.1736 42.8476L70.349 42.8476Z" fill="#2ABB9E"/>
</svg>
