<svg width="266" height="331" viewBox="0 0 266 331" fill="none" xmlns="http://www.w3.org/2000/svg">
<path opacity="0.52" fill-rule="evenodd" clip-rule="evenodd" d="M266 523.367L266 164.929L198.396 164.929L198.396 247.279L130.792 247.279L130.792 164.93L198.395 164.93L198.395 82.3529L130.791 82.3529L130.791 0.0029789L63.1865 0.00297299L63.1865 82.3529L-4.1906 82.3529L-4.19061 164.929L-71.7935 164.929L-71.7935 247.279L-139.398 247.279L-139.398 164.929L-207.002 164.929L-207.002 523.367L266 523.367ZM63.1865 82.3529L130.791 82.3529L130.791 164.929L63.1878 164.929L63.1878 247.279L-4.18931 247.279L-4.1893 164.93L63.1865 164.93L63.1865 82.3529ZM-4.41787 82.3501L-71.7949 82.3501L-71.7949 0.000153574L-4.41786 0.000159465L-4.41787 82.3501ZM-71.7949 82.3501L-71.795 164.927L-139.399 164.927L-139.399 82.3501L-71.7949 82.3501Z" fill="#393D84"/>
</svg>
