<svg width="135" height="243" viewBox="0 0 135 243" fill="none" xmlns="http://www.w3.org/2000/svg">
<path d="M334.366 7.47918L87.1111 7.47916C100.75 2.63968 115.708 -2.67311e-05 131.107 -2.5385e-05L290.37 -1.14617e-05C305.769 -1.01155e-05 320.727 2.6397 334.366 7.47918ZM357.903 18.6981L63.5735 18.698C59.174 21.3377 54.7744 24.4174 50.5948 27.4971L370.882 27.4972C366.702 24.1975 362.303 21.3378 357.903 18.6981ZM413.997 87.331C412.678 83.5914 411.138 79.8517 409.378 76.1121L12.0988 76.1121C10.339 79.8517 8.79914 83.3714 7.47926 87.331L413.997 87.331ZM1.09992 114.388C0.439976 119.888 3.6752e-06 125.387 3.19442e-06 130.886L-3.05176e-05 516.507L421.477 516.507L421.477 131.106C421.477 125.387 421.037 119.888 420.377 114.608L1.09992 114.608L1.09992 114.388ZM419.277 107.129C418.617 103.169 417.517 98.9898 416.417 95.2502L4.83954 95.2501C3.73966 99.2097 2.85975 103.169 1.97983 107.129L419.277 107.129ZM391.34 47.5151C391.34 47.5151 391.34 47.2951 391.34 47.5151C388.48 44.2154 385.62 40.9158 382.541 37.8361L39.156 37.8361C36.0763 40.9157 32.9966 43.9954 30.3569 47.515L391.34 47.5151ZM404.978 67.313C402.999 63.7934 400.799 60.2738 398.599 56.9741L23.0976 56.9741C20.8979 60.2737 18.6981 63.7934 16.7183 67.313L404.978 67.313Z" fill="#393D84"/>
</svg>
