<svg width="60" height="69" viewBox="0 0 60 69" fill="none" xmlns="http://www.w3.org/2000/svg">
<path d="M16.513 61.5888H43.5147C42.0253 62.1173 40.3917 62.4056 38.7101 62.4056H21.3176C19.636 62.4056 18.0024 62.1173 16.513 61.5888ZM13.9426 60.3636H46.0851C46.5656 60.0754 47.046 59.739 47.5025 59.4027H12.5252C12.9817 59.7631 13.4621 60.0754 13.9426 60.3636ZM7.81678 52.8685C7.96091 53.2769 8.12907 53.6853 8.32125 54.0937H51.7065C51.8986 53.6853 52.0668 53.3009 52.2109 52.8685H7.81678ZM52.9076 49.9137C52.9797 49.3131 53.0277 48.7126 53.0277 48.112V6H7V48.088C7 48.7126 7.04805 49.3131 7.12011 49.8897H52.9076V49.9137ZM7.24023 50.7065C7.3123 51.1389 7.43241 51.5953 7.55252 52.0037H52.4992C52.6193 51.5713 52.7154 51.1389 52.8115 50.7065H7.24023ZM10.2911 57.2167C10.2911 57.2167 10.2911 57.2407 10.2911 57.2167C10.6034 57.577 10.9157 57.9373 11.252 58.2737H48.7517C49.088 57.9373 49.4243 57.601 49.7126 57.2167H10.2911ZM8.80171 55.0546C9.01792 55.439 9.25814 55.8233 9.49837 56.1837H50.5053C50.7456 55.8233 50.9858 55.439 51.202 55.0546H8.80171Z" fill="#FCC69A"/>
</svg>
