<svg width="212" height="363" viewBox="0 0 212 363" fill="none" xmlns="http://www.w3.org/2000/svg">
<path opacity="0.5" d="M136.355 7.87737L-78.3549 7.87735C-66.5115 2.78025 -53.5219 3.78225e-05 -40.1503 3.89915e-05L98.1503 5.10821e-05C111.522 5.22511e-05 124.512 2.78027 136.355 7.87737ZM156.794 19.6934L-98.7944 19.6934C-102.615 22.4737 -106.435 25.7173 -110.065 28.9608L168.065 28.9609C164.435 25.4856 160.615 22.4737 156.794 19.6934ZM205.505 91.9796C204.359 88.041 203.022 84.1023 201.494 80.1636L-143.494 80.1636C-145.022 84.1022 -146.359 87.8092 -147.505 91.9796L205.505 91.9796ZM-153.045 120.477C-153.618 126.269 -154 132.061 -154 137.854L-154 544L212 544L212 138.085C212 132.061 211.618 126.269 211.045 120.709L-153.045 120.709L-153.045 120.477ZM210.09 112.831C209.517 108.661 208.562 104.259 207.607 100.32L-149.798 100.32C-150.753 104.491 -151.517 108.661 -152.281 112.831L210.09 112.831ZM185.83 50.0443C185.83 50.0443 185.83 49.8127 185.83 50.0443C183.347 46.5691 180.863 43.0937 178.189 39.8502L-119.998 39.8501C-122.672 43.0937 -125.347 46.3373 -127.639 50.0443L185.83 50.0443ZM197.673 70.8961C195.954 67.1891 194.044 63.4822 192.134 60.0069L-133.943 60.0068C-135.853 63.4821 -137.763 67.1891 -139.482 70.8961L197.673 70.8961Z" fill="#3E4299"/>
</svg>
