<svg width="224" height="313" viewBox="0 0 224 313" fill="none" xmlns="http://www.w3.org/2000/svg">
<path d="M46.0957 310.074H177.916C170.644 311.889 162.67 312.878 154.46 312.878H69.5512C61.3418 312.961 53.3669 311.971 46.0957 310.074Z" fill="#F57B20"/>
<path d="M26.625 302.65H197.264C195.035 303.805 192.807 304.96 190.344 305.949H33.5444C31.1988 304.877 28.8533 303.805 26.625 302.65Z" fill="#F57B20"/>
<path d="M3.64062 279.967C4.34429 281.369 5.16523 282.771 6.10345 284.173H217.907C218.845 282.771 219.666 281.451 220.369 279.967H3.64062Z" fill="#F57B20"/>
<path d="M223.415 269.743C223.766 266.066 224 262.389 224 258.712L224 0.882812L0 0.882812L0 258.565C0 262.389 0.23382 266.066 0.584551 269.596H223.415V269.743Z" fill="#F57B20"/>
<path d="M0.824219 272.465C1.17605 273.949 1.76244 275.516 2.34883 276.918H221.775C222.361 275.434 222.83 273.949 223.3 272.465H0.824219Z" fill="#F57B20"/>
<path d="M15.7168 294.891C17.2414 296.128 18.766 297.365 20.4079 298.519H203.478C205.12 297.365 206.762 296.21 208.169 294.891H15.7168Z" fill="#F57B20"/>
<path d="M8.44727 287.385C9.50276 288.704 10.6755 290.024 11.8483 291.261H212.041C213.214 290.024 214.387 288.704 215.442 287.385H8.44727Z" fill="#F57B20"/>
</svg>
