<svg width="191" height="118" viewBox="0 0 191 118" fill="none" xmlns="http://www.w3.org/2000/svg">
<path opacity="0.5" d="M218.128 1.26223L218.128 166.563L137.749 166.563L79.4715 166.563C36.5275 166.563 1.50835 129.524 1.50835 83.9126C1.50835 38.3012 36.5275 1.26223 79.4715 1.26223L218.128 1.26223ZM176.898 84.9958L176.898 84.2336L176.135 84.2336L140.63 84.2336L139.868 84.2336L139.868 84.9958L139.868 123.403L139.868 124.165L140.63 124.165L176.135 124.165L176.898 124.165L176.898 123.403L176.898 84.9958ZM179.017 84.2336L178.255 84.2336L178.255 84.9958L178.255 123.403L178.255 124.165L179.017 124.165L215.638 124.165L216.4 124.165L216.4 123.403L216.4 84.9958L216.4 84.2336L215.638 84.2336L179.017 84.2336ZM140.63 125.694L139.868 125.694L139.868 126.456L139.868 164.371L139.868 165.133L140.63 165.133L176.135 165.133L176.898 165.133L176.898 164.371L176.898 126.456L176.898 125.694L176.135 125.694L140.63 125.694ZM179.017 125.694L178.255 125.694L178.255 126.456L178.255 164.371L178.255 165.133L179.017 165.133L215.638 165.133L216.4 165.133L216.4 164.371L216.4 126.456L216.4 125.694L215.638 125.694L179.017 125.694ZM216.195 82.7052L216.957 82.7052L216.957 81.943L216.957 3.4544L216.957 2.69217L216.195 2.69217L140.165 2.69217L139.403 2.69217L139.403 3.4544L139.403 81.943L139.403 82.7052L140.165 82.7052L216.195 82.7052ZM138.046 3.35594L138.046 2.59371L137.284 2.59371L79.4715 2.59372C37.7481 2.59372 3.80362 38.0255 2.77246 81.8265L2.75411 82.6067L3.53449 82.6067L137.284 82.6067L138.046 82.6067L138.046 81.8445L138.046 3.35594ZM3.53449 84.2336L2.76415 84.2336L2.77229 85.0039C3.24101 129.303 37.4669 165.231 79.4715 165.231L137.284 165.231L138.046 165.231L138.046 164.469L138.046 84.9958L138.046 84.2336L137.284 84.2336L3.53449 84.2336Z" stroke="#8083B8" stroke-width="1.52446"/>
</svg>
