<svg width="288" height="529" viewBox="0 0 288 529" fill="none" xmlns="http://www.w3.org/2000/svg">
<g opacity="0.5">
<path d="M850.483 1044.28L850.483 308.889C850.45 204.148 805.759 103.706 726.237 29.6538C646.715 -44.3989 538.875 -85.9994 426.43 -85.9994V-85.9994C313.997 -85.9995 206.169 -44.3952 126.666 29.6607C47.164 103.717 2.50007 204.158 2.50006 308.889L2.5 1044.28" stroke="#F2F2CA" stroke-width="5" stroke-miterlimit="10"/>
<path d="M776.629 1044.28L776.629 308.889C776.629 222.347 739.722 139.35 674.027 78.1552C608.332 16.9608 519.231 -17.4179 426.324 -17.4179C333.418 -17.4179 244.316 16.9607 178.621 78.1551C112.927 139.35 76.0196 222.347 76.0196 308.889L76.0195 1044.28" stroke="#F2F2CA" stroke-width="5" stroke-miterlimit="10"/>
<path d="M702.702 1044.28L702.702 308.889C701.178 241.582 671.403 177.511 619.763 130.411C568.122 83.3125 498.726 56.9353 426.453 56.9353C354.18 56.9353 284.784 83.3124 233.143 130.411C181.503 177.51 151.728 241.582 150.204 308.889L150.204 1044.28" stroke="#F2F2CA" stroke-width="5" stroke-miterlimit="10"/>
<path d="M628.844 1044.28L628.844 308.889C627.543 259.696 605.649 212.926 567.838 178.563C530.027 144.199 479.293 124.964 426.467 124.964C373.64 124.964 322.906 144.199 285.095 178.562C247.284 212.926 225.391 259.696 224.089 308.889L224.089 1044.28" stroke="#F2F2CA" stroke-width="5" stroke-miterlimit="10"/>
</g>
</svg>
