<svg width="40" height="40" viewBox="0 0 40 40" fill="none" xmlns="http://www.w3.org/2000/svg">
<g clip-path="url(#clip0_5666_56746)">
<path d="M22.1729 17.2227H17.8263C17.4929 17.2227 17.2227 17.493 17.2227 17.8263V22.1729C17.2227 22.5063 17.4929 22.7766 17.8263 22.7766H22.1729C22.5064 22.7766 22.7766 22.5063 22.7766 22.1729V17.8263C22.7766 17.493 22.5064 17.2227 22.1729 17.2227ZM21.5692 21.5692H18.43V18.43H21.5692V21.5692Z" fill="#D72134"/>
<path d="M33.4022 7.80859C32.2704 7.80859 31.3496 8.72935 31.3496 9.86115C31.3496 10.993 32.2704 11.9137 33.4022 11.9137C34.534 11.9137 35.4547 10.993 35.4547 9.86115C35.4547 8.72935 34.534 7.80859 33.4022 7.80859ZM33.4022 10.7063C32.9361 10.7063 32.557 10.3272 32.557 9.86115C32.557 9.3951 32.9361 9.01598 33.4022 9.01598C33.8682 9.01598 34.2473 9.3951 34.2473 9.86115C34.2473 10.3272 33.8682 10.7063 33.4022 10.7063Z" fill="#D72134"/>
<path d="M30.2978 9.43079C30.1856 9.31856 30.0298 9.25391 29.871 9.25391C29.7117 9.25391 29.5559 9.3185 29.4436 9.43079C29.3313 9.54308 29.2673 9.69883 29.2673 9.8576C29.2673 10.0164 29.3313 10.1721 29.4436 10.2844C29.5565 10.3966 29.7117 10.4613 29.871 10.4613C30.0298 10.4613 30.1856 10.3967 30.2978 10.2844C30.4101 10.1721 30.4747 10.0164 30.4747 9.8576C30.4747 9.69883 30.4101 9.54308 30.2978 9.43079Z" fill="#D72134"/>
<path d="M29.6298 20.6051C29.8883 21.4432 30.6699 22.054 31.5916 22.054C32.7234 22.054 33.6442 21.1332 33.6442 20.0014C33.6442 18.8696 32.7234 17.9489 31.5916 17.9489C30.6699 17.9489 29.8882 18.5596 29.6298 19.3977H25.915V14.6889C25.915 14.3556 25.6448 14.0852 25.3114 14.0852H24.3454V10.4613H27.7275C28.0609 10.4613 28.3311 10.1909 28.3311 9.85756C28.3311 9.5242 28.0609 9.25387 27.7275 9.25387H23.7418C23.4083 9.25387 23.1381 9.5242 23.1381 9.85756V14.0852H20.6025V10.3705C21.4406 10.1121 22.0514 9.33048 22.0514 8.4087C22.0514 7.2769 21.1307 6.35614 19.9989 6.35614C18.8671 6.35614 17.9463 7.2769 17.9463 8.4087C17.9463 9.33048 18.5571 10.1121 19.3952 10.3705V14.0852H14.6864C14.3529 14.0852 14.0827 14.3556 14.0827 14.6889V15.6548H10.4586V8.5618C11.2976 8.30396 11.9094 7.52187 11.9094 6.59943C11.9094 5.46763 10.9886 4.54688 9.85681 4.54688C8.725 4.54688 7.80425 5.46763 7.80425 6.59943C7.80425 7.52055 8.41416 8.30173 9.25124 8.56071V16.2585C9.25124 16.5919 9.52152 16.8622 9.85494 16.8622H14.0827V19.3977H10.3679C10.1095 18.5596 9.32779 17.9489 8.40607 17.9489C7.27427 17.9489 6.35352 18.8696 6.35352 20.0014C6.35352 21.1332 7.27427 22.054 8.40607 22.054C9.32785 22.054 10.1095 21.4432 10.3679 20.6051H14.0827V25.3139C14.0827 25.6473 14.3529 25.9176 14.6864 25.9176H15.6523V29.5416H12.2703C11.9368 29.5416 11.6666 29.8119 11.6666 30.1453C11.6666 30.4786 11.9368 30.749 12.2703 30.749H16.256C16.5894 30.749 16.8596 30.4786 16.8596 30.1453V25.9176H19.3952V29.6323C18.5571 29.8908 17.9463 30.6724 17.9463 31.5941C17.9463 32.7259 18.8671 33.6467 19.9989 33.6467C21.1307 33.6467 22.0514 32.7259 22.0514 31.5941C22.0514 30.6724 21.4406 29.8907 20.6025 29.6323V25.9176H25.3114C25.6448 25.9176 25.915 25.6473 25.915 25.3139V24.348H29.5391V31.441C28.7001 31.6989 28.0883 32.481 28.0883 33.4034C28.0883 34.5352 29.0091 35.456 30.1409 35.456C31.2727 35.456 32.1935 34.5352 32.1935 33.4034C32.1935 32.4823 31.5835 31.7011 30.7465 31.4421V23.7443C30.7465 23.411 30.4762 23.1406 30.1428 23.1406H25.915V20.6051H29.6298ZM31.5916 19.1562C32.0577 19.1562 32.4368 19.5354 32.4368 20.0014C32.4368 20.4675 32.0576 20.8466 31.5916 20.8466C31.1256 20.8466 30.7465 20.4675 30.7465 20.0014C30.7465 19.5354 31.1256 19.1562 31.5916 19.1562ZM9.85681 7.4446C9.39076 7.4446 9.01164 7.06548 9.01164 6.59943C9.01164 6.13338 9.39076 5.75426 9.85681 5.75426C10.3229 5.75426 10.702 6.13338 10.702 6.59943C10.702 7.06548 10.3229 7.4446 9.85681 7.4446ZM8.40607 20.8466C7.94002 20.8466 7.5609 20.4675 7.5609 20.0014C7.5609 19.5354 7.94002 19.1562 8.40607 19.1562C8.87212 19.1562 9.25124 19.5354 9.25124 20.0014C9.25124 20.4675 8.87212 20.8466 8.40607 20.8466ZM19.1537 8.4087C19.1537 7.94265 19.5328 7.56353 19.9989 7.56353C20.4649 7.56353 20.844 7.94265 20.844 8.4087C20.844 8.87475 20.4649 9.25387 19.9989 9.25387C19.5328 9.25387 19.1537 8.87475 19.1537 8.4087ZM20.844 31.5941C20.844 32.0602 20.4649 32.4393 19.9989 32.4393C19.5328 32.4393 19.1537 32.0602 19.1537 31.5941C19.1537 31.1281 19.5328 30.749 19.9989 30.749C20.4649 30.749 20.844 31.1281 20.844 31.5941ZM24.7077 24.7102H15.29V15.2926H24.7077V24.7102ZM30.1409 32.5582C30.607 32.5582 30.9861 32.9374 30.9861 33.4034C30.9861 33.8695 30.607 34.2486 30.1409 34.2486C29.6748 34.2486 29.2957 33.8695 29.2957 33.4034C29.2957 32.9374 29.6748 32.5582 30.1409 32.5582Z" fill="#D72134"/>
<path d="M6.59748 28.0898C5.46567 28.0898 4.54492 29.0106 4.54492 30.1424C4.54492 31.2742 5.46567 32.195 6.59748 32.195C7.72928 32.195 8.65004 31.2742 8.65004 30.1424C8.65004 29.0106 7.72928 28.0898 6.59748 28.0898ZM6.59748 30.9876C6.13143 30.9876 5.75231 30.6085 5.75231 30.1424C5.75231 29.6763 6.13143 29.2972 6.59748 29.2972C7.06353 29.2972 7.44265 29.6763 7.44265 30.1424C7.44265 30.6085 7.06353 30.9876 6.59748 30.9876Z" fill="#D72134"/>
<path d="M10.5559 29.7199C10.4436 29.6076 10.2879 29.543 10.1291 29.543C9.97031 29.543 9.81456 29.6075 9.70227 29.7199C9.58999 29.8321 9.52539 29.9878 9.52539 30.1467C9.52539 30.3054 9.58999 30.4612 9.70227 30.5734C9.81456 30.6857 9.97031 30.7504 10.1291 30.7504C10.2879 30.7504 10.4436 30.6858 10.5559 30.5734C10.6682 30.4612 10.7328 30.3054 10.7328 30.1467C10.7328 29.9878 10.6682 29.8321 10.5559 29.7199Z" fill="#D72134"/>
</g>
<defs>
<clipPath id="clip0_5666_56746">
<rect width="30.9091" height="30.9091" fill="white" transform="translate(4.54492 4.54688)"/>
</clipPath>
</defs>
</svg>
