<svg width="40" height="40" viewBox="0 0 40 40" fill="none" xmlns="http://www.w3.org/2000/svg">
<path d="M34.4186 19.59C33.8813 18.6487 32.8836 18.0599 31.7757 18.0599C31.693 18.0599 31.6107 18.0635 31.5288 18.0701C31.8761 16.8398 32.0478 15.5242 32.021 14.1921C31.9574 11.0318 30.7873 8.10443 28.726 5.94898C26.7364 3.87102 23.9723 2.72656 20.943 2.72656C17.9137 2.72656 15.1496 3.87102 13.1592 5.94979C12.8928 6.22891 12.6409 6.52351 12.4036 6.82771C11.8787 6.63521 11.3185 6.60979 10.7867 6.75198C10.1973 6.07481 9.33186 5.67156 8.41594 5.67156C7.26918 5.67156 6.23825 6.2826 5.68745 7.25869C3.97766 7.54484 2.69141 9.02785 2.69141 10.7997C2.69141 12.7786 4.30424 14.3883 6.28659 14.3883H9.86359C9.85047 17.211 10.7408 20.0048 12.3056 21.9784C13.2033 23.1121 13.7526 23.8225 14.2374 24.4495C14.8966 25.3021 15.4699 26.0436 16.6809 27.5408V30.8688H15.1912C14.8178 30.8688 14.5151 31.1716 14.5151 31.545C14.5151 31.9183 14.8178 32.2211 15.1912 32.2211H15.5615V34.9203C15.5615 36.2169 16.6172 37.2717 17.9148 37.2717H23.9713C25.2688 37.2717 26.3244 36.2168 26.3244 34.9203V32.2211H26.6948C27.0682 32.2211 27.3709 31.9183 27.3709 31.545C27.3709 31.1716 27.0682 30.8688 26.6948 30.8688H25.2051V27.5406C25.666 26.9702 26.0348 26.5094 26.3507 26.1106C26.8011 26.3626 27.3101 26.4974 27.8351 26.4974H33.8246C35.7467 26.4974 37.3105 24.9364 37.3105 23.0177C37.3105 21.3049 36.0699 19.8713 34.4186 19.59ZM15.507 10.3323H29.9221C30.1714 10.9827 30.3555 11.6515 30.479 12.3266H15.4602C15.5822 11.9927 15.6489 11.6323 15.6489 11.2568C15.6488 10.9381 15.5987 10.6274 15.507 10.3323ZM20.943 4.07887C21.8269 4.07887 22.7132 5.02285 23.374 6.6676C23.6496 7.35694 23.8833 8.13256 24.0724 8.97998H17.8135C18.0025 8.13263 18.2362 7.35728 18.5114 6.66868C19.1728 5.02285 20.0591 4.07887 20.943 4.07887ZM27.749 6.8839C28.3665 7.52963 28.8785 8.23533 29.2922 8.97998H25.4555C25.2406 7.94702 24.964 7.00169 24.6293 6.16447C24.3508 5.47135 24.0496 4.91636 23.7406 4.47037C25.2765 4.91703 26.6507 5.7368 27.749 6.8839ZM18.1457 4.47037C17.8365 4.91656 17.535 5.47196 17.2563 6.16562C16.922 7.00196 16.6454 7.94709 16.4306 8.97998H14.6621C14.4901 8.81811 14.3 8.67362 14.092 8.55259C13.9745 8.19618 13.7805 7.86751 13.5271 7.5867C13.72 7.34389 13.923 7.10818 14.1368 6.88424C15.2352 5.73687 16.6096 4.91703 18.1457 4.47037ZM4.04372 10.7997C4.04372 9.60833 4.97701 8.62642 6.16847 8.56428C6.43149 8.55056 6.66267 8.38537 6.76078 8.14087C7.03307 7.46229 7.68278 7.0238 8.41594 7.0238C9.0501 7.0238 9.64147 7.36262 9.95913 7.90801C10.1406 8.21965 10.5348 8.33405 10.8549 8.16792C11.3809 7.89482 11.845 8.04263 12.075 8.15514C12.4769 8.35156 12.7736 8.72839 12.8494 9.13827C12.8899 9.35755 13.0359 9.54275 13.2396 9.63328C13.8817 9.91869 14.2966 10.5559 14.2966 11.2567C14.2966 12.2378 13.496 13.036 12.5118 13.036H6.28659C5.04984 13.0361 4.04372 12.0329 4.04372 10.7997ZM12.1956 19.1846H17.9071C18.2805 19.1846 18.5832 18.8818 18.5832 18.5084C18.5832 18.1351 18.2805 17.8323 17.9071 17.8323H11.6987C11.3766 16.7409 11.2088 15.569 11.2156 14.3883H12.5117C13.2647 14.3883 13.9564 14.122 14.4978 13.6789H30.6459C30.7393 15.108 30.5747 16.5297 30.19 17.8323H23.9789C23.6054 17.8323 23.3027 18.1351 23.3027 18.5084C23.3027 18.8818 23.6054 19.1846 23.9789 19.1846H29.6918C29.3716 19.9004 28.9787 20.5599 28.5202 21.1389C28.5099 21.1519 28.5002 21.1641 28.49 21.1769H13.3959C13.3856 21.164 13.3759 21.1517 13.3655 21.1385C12.9073 20.5607 12.5151 19.9006 12.1956 19.1846ZM26.5742 23.6274C26.2825 24.0046 26.0077 24.3597 25.6865 24.7691C25.6833 24.7731 25.68 24.7772 25.6769 24.7813C25.2908 25.2732 24.8372 25.844 24.2062 26.6253H23.3884C23.7396 25.582 23.9438 24.9529 24.1724 24.2479C24.3259 23.7749 24.4967 23.2486 24.7339 22.5293H27.4267C27.0985 22.9498 26.8274 23.3003 26.5742 23.6274ZM19.925 26.6253C19.4832 25.3201 19.2573 24.6242 19.0001 23.8313C18.8779 23.4544 18.7446 23.0437 18.5758 22.5293H23.3103C23.1415 23.0434 23.0084 23.4539 22.8861 23.8306C22.6289 24.6237 22.403 25.3198 21.9611 26.6253H19.925ZM14.4591 22.5293H17.1521C17.3895 23.249 17.5603 23.7753 17.7137 24.2486C17.9424 24.9534 18.1465 25.5823 18.4976 26.6253H17.6796C16.5135 25.1826 15.952 24.4562 15.3071 23.6223C15.0552 23.2965 14.7855 22.9475 14.4591 22.5293ZM24.9721 34.9204C24.9721 35.4713 24.5232 35.9194 23.9713 35.9194H17.9148C17.3629 35.9194 16.9139 35.4713 16.9139 34.9204V32.2212H24.9721V34.9204ZM18.0332 30.8689V27.9776H23.8528V30.8689H18.0332ZM33.8246 25.1452H27.8352C27.6166 25.1452 27.403 25.1026 27.2041 25.0225C27.3518 24.8324 27.4957 24.6464 27.6438 24.4549C28.1296 23.8269 28.6802 23.1153 29.5804 21.9785C30.137 21.2757 30.6074 20.4764 30.9823 19.6111C31.2258 19.4812 31.4965 19.4122 31.7757 19.4122C32.4705 19.4122 33.0873 19.8285 33.347 20.4728C33.4454 20.7169 33.6764 20.8817 33.9392 20.8953C35.0714 20.9537 35.9582 21.8861 35.9582 23.0178C35.9582 24.1908 35.0011 25.1452 33.8246 25.1452Z" fill="#D72134"/>
<path d="M20.9417 19.1843H20.9456C21.319 19.1843 21.6198 18.8816 21.6198 18.5082C21.6198 18.1348 21.3152 17.832 20.9418 17.832C20.5683 17.832 20.2656 18.1348 20.2656 18.5082C20.2656 18.8816 20.5683 19.1843 20.9417 19.1843Z" fill="#D72134"/>
</svg>
