<svg width="38" height="38" viewBox="0 0 38 38" fill="none" xmlns="http://www.w3.org/2000/svg">
<path d="M19.0047 2.99522C10.1655 2.99247 2.99777 10.1557 2.99501 18.995C2.99225 27.8343 10.1555 35.0019 18.9948 35.0047C27.834 35.0074 35.0017 27.8442 35.0045 19.0049C35.0072 10.1657 27.844 2.99798 19.0047 2.99522ZM15.0799 25.6324L11.8389 25.6314L11.8421 15.2016L15.0831 15.2026L15.0799 25.6324ZM13.443 13.9217C12.4194 13.9214 11.7577 13.196 11.758 12.2991C11.7583 11.3838 12.4404 10.6805 13.4857 10.6808C14.531 10.6811 15.171 11.3848 15.1907 12.3001C15.1904 13.1971 14.53 13.9221 13.443 13.9217ZM26.9167 25.6361L23.6757 25.635L23.6775 19.855C23.6779 18.5096 23.2081 17.5959 22.0361 17.5955C21.1408 17.5952 20.6088 18.2136 20.3735 18.8087C20.2868 19.0204 20.265 19.3204 20.2649 19.6189L20.2631 25.6323L17.0204 25.6313L17.0226 18.5292C17.023 17.2272 16.9817 16.1385 16.9387 15.2015L19.7545 15.2024L19.9024 16.6512L19.9674 16.6512C20.3944 15.9712 21.4401 14.9679 23.1889 14.9684C25.3212 14.9691 26.9196 16.3983 26.9186 19.4692L26.9167 25.6361V25.6361Z" fill="#8083B8"/>
</svg>
