<svg width="38" height="38" viewBox="0 0 38 38" fill="none" xmlns="http://www.w3.org/2000/svg">
<path d="M19 3C10.1643 3 3 10.1643 3 19C3 27.8357 10.1643 35 19 35C27.8357 35 35 27.8357 35 19C35 10.1643 27.8357 3 19 3ZM26.6893 15.0607C26.7 15.2286 26.7 15.4036 26.7 15.575C26.7 20.8179 22.7071 26.8571 15.4107 26.8571C13.1607 26.8571 11.075 26.2036 9.31786 25.0786C9.63929 25.1143 9.94643 25.1286 10.275 25.1286C12.1321 25.1286 13.8393 24.5 15.2 23.4357C13.4571 23.4 11.9929 22.2571 11.4929 20.6857C12.1036 20.775 12.6536 20.775 13.2821 20.6143C12.3847 20.432 11.5781 19.9446 10.9993 19.2349C10.4206 18.5253 10.1053 17.6372 10.1071 16.7214V16.6714C10.6321 16.9679 11.25 17.15 11.8964 17.175C11.353 16.8128 10.9074 16.3222 10.599 15.7465C10.2906 15.1709 10.129 14.528 10.1286 13.875C10.1286 13.1357 10.3214 12.4607 10.6679 11.875C11.6639 13.1012 12.9069 14.1041 14.3159 14.8184C15.725 15.5328 17.2686 15.9427 18.8464 16.0214C18.2857 13.325 20.3 11.1429 22.7214 11.1429C23.8643 11.1429 24.8929 11.6214 25.6179 12.3929C26.5143 12.225 27.3714 11.8893 28.1357 11.4393C27.8393 12.3571 27.2179 13.1321 26.3929 13.6214C27.1929 13.5357 27.9643 13.3143 28.6786 13.0036C28.1393 13.7964 27.4643 14.5 26.6893 15.0607Z" fill="#8083B8"/>
</svg>
